<?xml version="1.0" encoding="utf-8"?>
<!-- Generator: Adobe Illustrator 16.0.4, SVG Export Plug-In . SVG Version: 6.00 Build 0)  -->
<!DOCTYPE svg PUBLIC "-//W3C//DTD SVG 1.1//EN" "http://www.w3.org/Graphics/SVG/1.1/DTD/svg11.dtd">
<svg version="1.1" id="Calque_1" xmlns="http://www.w3.org/2000/svg" xmlns:xlink="http://www.w3.org/1999/xlink" x="0px" y="0px"
	 width="25px" height="25px" viewBox="0 0 25 25" enable-background="new 0 0 25 25" xml:space="preserve">
<path fill="#A4CFEE" d="M12.5,0C9.048,0,5.923,1.399,3.661,3.661L12.5,12.5V0z"/>
<path fill="#EE6565" d="M3.661,3.661C1.398,5.923,0,9.048,0,12.5h12.5L3.661,3.661z"/>
<path fill="#8F5FAF" d="M21.339,3.661C19.077,1.399,15.952,0,12.5,0v12.5L21.339,3.661z"/>
<path fill="#E0CD6C" d="M25,12.5c0-3.452-1.398-6.577-3.661-8.839L12.5,12.5H25z"/>
<path fill="#396099" d="M12.5,25c3.452,0,6.577-1.398,8.839-3.661L12.5,12.5V25z"/>
<path fill="#ED7D66" d="M12.5,12.5l8.839,8.839C23.602,19.077,25,15.952,25,12.5H12.5z"/>
<path fill="#54C692" d="M3.661,21.339C5.923,23.602,9.048,25,12.5,25V12.5L3.661,21.339z"/>
<path fill="#B5D378" d="M0,12.5c0,3.452,1.398,6.577,3.661,8.839L12.5,12.5H0z"/>
<circle fill="#FFFFFF" cx="12.5" cy="12.5" r="10.576"/>
</svg>
