<?xml version="1.0" encoding="utf-8"?>
<!-- Generator: Adobe Illustrator 16.0.4, SVG Export Plug-In . SVG Version: 6.00 Build 0)  -->
<!DOCTYPE svg PUBLIC "-//W3C//DTD SVG 1.1//EN" "http://www.w3.org/Graphics/SVG/1.1/DTD/svg11.dtd">
<svg version="1.1" id="Calque_1" xmlns="http://www.w3.org/2000/svg" xmlns:xlink="http://www.w3.org/1999/xlink" x="0px" y="0px"
	 width="200px" height="29.16px" viewBox="0 0 200 29.16" enable-background="new 0 0 200 29.16" xml:space="preserve">
<g>
	<g>
		<path fill="#333333" d="M0,1.812h17.417v0.654H9.018v22.679H8.369V2.466H0V1.812z"/>
		<path fill="#333333" d="M34.248,24.492v0.652H18.625V1.812h15.492v0.654H19.284v10.195h13.949v0.654H19.284v11.177H34.248z"/>
		<path fill="#333333" d="M54.934,19.902c-0.544,1.188-1.246,2.207-2.107,3.051c-0.862,0.855-1.879,1.52-3.051,1.995
			c-1.178,0.481-2.508,0.716-3.988,0.716c-1.549,0-2.969-0.293-4.269-0.897c-1.294-0.596-2.407-1.427-3.329-2.481
			c-0.932-1.055-1.655-2.323-2.177-3.789c-0.521-1.471-0.786-3.08-0.786-4.82c0-1.416,0.205-2.86,0.604-4.333
			c0.409-1.468,1.043-2.805,1.913-4.003c0.875-1.196,2.008-2.179,3.398-2.942c1.396-0.762,3.086-1.143,5.067-1.143
			c1.549,0,2.901,0.256,4.054,0.77c1.152,0.51,2.117,1.154,2.891,1.926c0.775,0.774,1.356,1.599,1.75,2.471
			c0.393,0.869,0.595,1.665,0.618,2.383h-0.649c-0.067-0.85-0.316-1.681-0.755-2.5c-0.437-0.816-1.026-1.553-1.783-2.206
			c-0.746-0.653-1.642-1.182-2.677-1.583c-1.035-0.403-2.188-0.605-3.448-0.605c-1.92,0-3.535,0.388-4.853,1.162
			c-1.318,0.771-2.383,1.74-3.184,2.907c-0.809,1.165-1.39,2.435-1.753,3.807c-0.356,1.372-0.536,2.671-0.536,3.891
			c0,1.48,0.219,2.907,0.649,4.277c0.438,1.376,1.08,2.584,1.933,3.629c0.847,1.047,1.89,1.887,3.121,2.52
			c1.23,0.627,2.628,0.944,4.199,0.944c1.391,0,2.643-0.226,3.754-0.688c1.113-0.452,2.07-1.087,2.877-1.896
			c0.809-0.803,1.459-1.76,1.966-2.873c0.497-1.113,0.837-2.31,1.012-3.596h0.649C55.85,17.41,55.479,18.711,54.934,19.902z"/>
		<path fill="#333333" d="M59.216,25.145h-0.651V1.812h0.651v10.85h16.341V1.812h0.654v23.333h-0.654V13.315H59.216V25.145z"/>
		<path fill="#333333" d="M112.372,1.812l15.945,22.518h0.07V1.812h0.648v23.333h-0.977L112.11,2.629h-0.066v22.516h-0.652V1.812
			H112.372z"/>
		<path fill="#333333" d="M161.145,1.812v23.333h-0.656V2.629h-0.068l-9.9,22.516h-0.719l-9.902-22.516h-0.066v22.516h-0.65V1.812
			h1.08l9.867,22.485h0.064l9.873-22.485H161.145z"/>
		<path fill="#333333" d="M163.27,25.145h-0.719l9.441-23.333h0.848l9.219,23.333h-0.719l-3.07-7.68h-11.896L163.27,25.145z
			 M172.45,2.466h-0.062l-5.756,14.346h11.373L172.45,2.466z"/>
		<path fill="#333333" d="M183.465,25.145V1.812h9.441c2.242,0,3.988,0.534,5.23,1.602C199.381,4.479,200,6.069,200,8.184
			c0,1.024-0.184,1.935-0.559,2.729c-0.367,0.795-0.877,1.459-1.535,1.992c-0.652,0.537-1.434,0.938-2.332,1.211
			c-0.908,0.273-1.904,0.409-2.992,0.409h-8.469v10.619H183.465z M192.907,13.872c0.914,0,1.77-0.127,2.551-0.379
			c0.781-0.248,1.469-0.618,2.043-1.109s1.027-1.083,1.355-1.783c0.328-0.693,0.492-1.503,0.492-2.417
			c0-1.851-0.531-3.267-1.586-4.248s-2.672-1.47-4.855-1.47h-8.793v11.406H192.907z"/>
	</g>
	<path fill="#333333" d="M97.553,0.527c-6.43,0-11.639,5.21-11.639,11.636c0,2.773,0.971,5.315,2.589,7.31l8.988,9.16l9.123-9.16
		c1.613-1.994,2.578-4.536,2.578-7.31C109.192,5.737,103.985,0.527,97.553,0.527z M97.553,16.961c-2.645,0-4.792-2.145-4.792-4.798
		c0-2.646,2.147-4.795,4.792-4.795c2.653,0,4.803,2.148,4.803,4.795C102.356,14.816,100.206,16.961,97.553,16.961z"/>
</g>
</svg>
