<?xml version="1.0" encoding="utf-8"?>
<!-- Generator: Adobe Illustrator 16.0.4, SVG Export Plug-In . SVG Version: 6.00 Build 0)  -->
<!DOCTYPE svg PUBLIC "-//W3C//DTD SVG 1.1//EN" "http://www.w3.org/Graphics/SVG/1.1/DTD/svg11.dtd">
<svg version="1.1" id="maquette_techonmap_oct_2014.fw-Sprite"
	 xmlns="http://www.w3.org/2000/svg" xmlns:xlink="http://www.w3.org/1999/xlink" x="0px" y="0px" width="33px" height="40px"
	 viewBox="617.5 6.138 33 40" enable-background="new 617.5 6.138 33 40" xml:space="preserve">
<g>
	<path fill="#25553E" d="M650.5,22.391c0-8.978-7.387-16.252-16.5-16.252s-16.5,7.275-16.5,16.252
		c0,7.327,4.926,13.521,11.694,15.549L634,46.139l4.806-8.199C645.574,35.911,650.5,29.718,650.5,22.391z"/>
	<g>
		<g>
			<path fill="#FFFFFF" d="M641.635,28.514c-2.795,0-4.67-1.385-5.227-1.777c-4.271-0.094-7.71-3.404-7.71-7.323
				c0-3.979,3.544-7.273,7.898-7.273c4.357,0,7.902,3.209,7.902,7.188c0,2.074-0.964,4.008-2.659,5.38l0.472,2.646
				c0.032,0.176-0.014,0.58-0.122,0.717c-0.109,0.141-0.271,0.447-0.443,0.447C641.744,28.514,641.636,28.514,641.635,28.514z
				 M636.598,13.289c-3.713,0-6.732,2.694-6.732,6.008c0,3.311,3.021,6.004,6.732,6.004c0.129,0,0.256,0.047,0.359,0.127
				c0.017,0.016,1.558,1.227,4.079,1.4l-0.408-2.287c-0.041-0.23,0.051-0.468,0.236-0.604c1.567-1.148,2.469-2.842,2.469-4.642
				C643.333,15.984,640.312,13.289,636.598,13.289z"/>
		</g>
		<g>
			<path fill="#FFFFFF" d="M626.37,32.139c-0.039,0-0.078,0-0.116,0c-0.172,0-0.335-0.105-0.444-0.244
				c-0.107-0.137-0.153-0.328-0.122-0.504l0.473-2.656c-1.694-1.373-2.659-3.32-2.659-5.397c0-3.405,2.539-6.303,6.174-7.045
				l0.228,1.185c-3.032,0.619-5.233,3.082-5.233,5.858c0,1.8,0.9,3.491,2.468,4.642c0.188,0.135,0.278,0.371,0.237,0.604
				l-0.408,2.287c2.522-0.174,4.062-1.387,4.079-1.398c0.104-0.082,0.229-0.128,0.359-0.128c2.43,0,4.682-1.176,5.876-3.069
				l0.977,0.66c-1.376,2.182-3.916,3.577-6.663,3.639C631.036,30.959,629.163,32.139,626.37,32.139z"/>
		</g>
	</g>
</g>
</svg>
