<?xml version="1.0" encoding="utf-8"?>
<!-- Generator: Adobe Illustrator 16.0.4, SVG Export Plug-In . SVG Version: 6.00 Build 0)  -->
<!DOCTYPE svg PUBLIC "-//W3C//DTD SVG 1.1//EN" "http://www.w3.org/Graphics/SVG/1.1/DTD/svg11.dtd">
<svg version="1.1" id="maquette_techonmap_oct_2014.fw-Sprite"
	 xmlns="http://www.w3.org/2000/svg" xmlns:xlink="http://www.w3.org/1999/xlink" x="0px" y="0px" width="33px" height="40px"
	 viewBox="566.5 7.138 33 40" enable-background="new 566.5 7.138 33 40" xml:space="preserve">
<g>
	<g>
		<path fill="#53C591" d="M578.526,38.517l-0.188-0.056C571.557,36.429,567,30.372,567,23.391c0-8.686,7.178-15.752,16-15.752
			s16,7.066,16,15.752c0,6.981-4.557,13.038-11.338,15.07l-0.188,0.056L583,46.149L578.526,38.517z"/>
		<path fill="#25553E" d="M583,8.138c8.547,0,15.5,6.842,15.5,15.252c0,6.759-4.413,12.623-10.981,14.591l-0.377,0.113l-0.198,0.339
			L583,45.161l-3.943-6.728l-0.198-0.339l-0.377-0.113c-6.568-1.968-10.981-7.832-10.981-14.591
			C567.5,14.98,574.453,8.138,583,8.138 M583,7.138c-9.113,0-16.5,7.275-16.5,16.252c0,7.327,4.926,13.521,11.694,15.549L583,47.139
			l4.806-8.199c6.769-2.028,11.694-8.222,11.694-15.549C599.5,14.413,592.113,7.138,583,7.138L583,7.138z"/>
	</g>
	<g>
		<g>
			<path fill="#FFFFFF" d="M590.635,29.514c-2.795,0-4.67-1.385-5.227-1.777c-4.271-0.094-7.71-3.404-7.71-7.323
				c0-3.979,3.544-7.273,7.898-7.273c4.357,0,7.902,3.209,7.902,7.188c0,2.074-0.964,4.008-2.659,5.38l0.472,2.646
				c0.032,0.176-0.014,0.58-0.122,0.717c-0.109,0.141-0.271,0.447-0.443,0.447C590.744,29.514,590.636,29.514,590.635,29.514z
				 M585.598,14.289c-3.713,0-6.732,2.694-6.732,6.008c0,3.311,3.021,6.004,6.732,6.004c0.129,0,0.256,0.047,0.359,0.127
				c0.017,0.016,1.558,1.227,4.079,1.4l-0.408-2.287c-0.041-0.23,0.051-0.468,0.236-0.604c1.567-1.148,2.469-2.842,2.469-4.642
				C592.333,16.984,589.312,14.289,585.598,14.289z"/>
		</g>
		<g>
			<path fill="#FFFFFF" d="M575.37,33.139c-0.039,0-0.078,0-0.116,0c-0.172,0-0.335-0.105-0.444-0.244
				c-0.107-0.137-0.153-0.328-0.122-0.504l0.473-2.656c-1.694-1.373-2.659-3.32-2.659-5.397c0-3.405,2.539-6.303,6.174-7.045
				l0.228,1.185c-3.032,0.619-5.233,3.082-5.233,5.858c0,1.8,0.9,3.491,2.468,4.642c0.188,0.135,0.278,0.371,0.237,0.604
				l-0.408,2.287c2.522-0.174,4.062-1.387,4.079-1.398c0.104-0.082,0.229-0.128,0.359-0.128c2.43,0,4.682-1.176,5.876-3.069
				l0.977,0.66c-1.376,2.182-3.916,3.577-6.663,3.639C580.036,31.959,578.163,33.139,575.37,33.139z"/>
		</g>
	</g>
</g>
</svg>
