<?xml version="1.0" encoding="utf-8"?>
<!-- Generator: Adobe Illustrator 16.0.4, SVG Export Plug-In . SVG Version: 6.00 Build 0)  -->
<!DOCTYPE svg PUBLIC "-//W3C//DTD SVG 1.1//EN" "http://www.w3.org/Graphics/SVG/1.1/DTD/svg11.dtd">
<svg version="1.1" id="maquette_techonmap_oct_2014.fw-Sprite"
	 xmlns="http://www.w3.org/2000/svg" xmlns:xlink="http://www.w3.org/1999/xlink" x="0px" y="0px" width="33px" height="40px"
	 viewBox="4 0.5 33 40" enable-background="new 4 0.5 33 40" xml:space="preserve">
<g>
	<path fill="#677543" d="M37,16.752C37,7.774,29.613,0.5,20.5,0.5S4,7.774,4,16.752c0,7.327,4.926,13.521,11.693,15.549L20.5,40.5
		l4.807-8.199C32.074,30.272,37,24.079,37,16.752z"/>
	<g>
		<g>
			<g>
				<path fill="#FFFFFF" d="M28.5,24.5h-7c-0.275,0-0.5-0.225-0.5-0.5V7.607c0-0.162,0.078-0.313,0.211-0.408
					c0.133-0.093,0.303-0.117,0.455-0.062l7,2.447C28.865,9.653,29,9.843,29,10.056V24C29,24.275,28.777,24.5,28.5,24.5z M22,23.5h6
					V10.409l-6-2.098V23.5z"/>
			</g>
			<g>
				<path fill="#FFFFFF" d="M26.5,24.5h-1c-0.275,0-0.5-0.225-0.5-0.5v-3.332c0-0.162,0.08-0.312,0.213-0.408
					c0.131-0.094,0.301-0.116,0.455-0.062l1,0.354C26.867,20.622,27,20.812,27,21.024V24C27,24.275,26.777,24.5,26.5,24.5z"/>
			</g>
			<g>
				<path fill="#FFFFFF" d="M21.5,24.5h-4c-0.275,0-0.5-0.225-0.5-0.5V10.055c0-0.174,0.09-0.336,0.24-0.427l4-2.447
					c0.15-0.094,0.348-0.097,0.504-0.01C21.902,7.26,22,7.427,22,7.608V24C22,24.275,21.777,24.5,21.5,24.5z M18,23.5h3v-15
					l-3,1.836V23.5z"/>
			</g>
			<g>
				<path fill="#FFFFFF" d="M17.5,24.5h-3c-0.275,0-0.5-0.225-0.5-0.5v-9.438c0-0.172,0.088-0.33,0.232-0.423
					c0.145-0.091,0.322-0.104,0.479-0.029l3,1.408c0.176,0.08,0.287,0.258,0.287,0.451v8.028C18,24.275,17.777,24.5,17.5,24.5z
					 M15,23.5h2v-7.213l-2-0.938V23.5z"/>
			</g>
			<g>
				<path fill="#FFFFFF" d="M14.5,24.5h-2c-0.275,0-0.5-0.225-0.5-0.5v-8.029c0-0.164,0.08-0.314,0.213-0.408l2-1.408
					c0.152-0.107,0.354-0.121,0.52-0.034s0.27,0.258,0.27,0.443v9.438C15,24.275,14.777,24.5,14.5,24.5z M13,23.5h1v-7.975l-1,0.704
					V23.5z"/>
			</g>
			<g>
				<path fill="#FFFFFF" d="M32,24.5H10c-0.275,0-0.5-0.225-0.5-0.5c0-0.277,0.225-0.5,0.5-0.5h22c0.277,0,0.5,0.223,0.5,0.5
					C32.5,24.275,32.277,24.5,32,24.5z"/>
			</g>
			<g>
				<path fill="#FFFFFF" d="M23.932,11.736c-0.127,0-0.256-0.049-0.354-0.146c-0.195-0.194-0.195-0.513,0-0.707l1.998-1.997
					c0.195-0.194,0.512-0.194,0.707,0c0.193,0.195,0.193,0.513,0,0.707l-1.998,1.997C24.188,11.688,24.061,11.736,23.932,11.736z"/>
			</g>
			<g>
				<path fill="#FFFFFF" d="M23.4,15.175c-0.129,0-0.256-0.049-0.354-0.146c-0.195-0.194-0.195-0.513,0-0.707l4.619-4.62
					c0.195-0.194,0.512-0.194,0.707,0c0.195,0.195,0.195,0.513,0,0.707l-4.619,4.62C23.656,15.127,23.527,15.175,23.4,15.175z"/>
			</g>
		</g>
	</g>
</g>
</svg>
