<?xml version="1.0" encoding="utf-8"?>
<!-- Generator: Adobe Illustrator 16.0.4, SVG Export Plug-In . SVG Version: 6.00 Build 0)  -->
<!DOCTYPE svg PUBLIC "-//W3C//DTD SVG 1.1//EN" "http://www.w3.org/Graphics/SVG/1.1/DTD/svg11.dtd">
<svg version="1.1" id="maquette_techonmap_oct_2014.fw-Sprite"
	 xmlns="http://www.w3.org/2000/svg" xmlns:xlink="http://www.w3.org/1999/xlink" x="0px" y="0px" width="33px" height="40px"
	 viewBox="667.5 6.638 33 40" enable-background="new 667.5 6.638 33 40" xml:space="preserve">
<g>
	<g>
		<path fill="#B4D277" d="M679.526,38.017l-0.188-0.056C672.557,35.929,668,29.872,668,22.891c0-8.686,7.178-15.752,16-15.752
			s16,7.066,16,15.752c0,6.981-4.557,13.038-11.338,15.07l-0.188,0.056L684,45.649L679.526,38.017z"/>
		<path fill="#677543" d="M684,7.638c8.547,0,15.5,6.842,15.5,15.252c0,6.759-4.413,12.623-10.981,14.591l-0.377,0.113l-0.198,0.339
			L684,44.661l-3.943-6.728l-0.198-0.339l-0.377-0.113c-6.568-1.968-10.981-7.832-10.981-14.591
			C668.5,14.48,675.453,7.638,684,7.638 M684,6.638c-9.113,0-16.5,7.275-16.5,16.252c0,7.327,4.926,13.521,11.694,15.549L684,46.639
			l4.806-8.199c6.769-2.028,11.694-8.222,11.694-15.549C700.5,13.913,693.113,6.638,684,6.638L684,6.638z"/>
	</g>
	<g>
		<g>
			<g>
				<path fill="#FFFFFF" d="M692,30.639h-7c-0.276,0-0.5-0.225-0.5-0.5V13.746c0-0.162,0.079-0.314,0.21-0.408
					c0.133-0.093,0.303-0.118,0.455-0.063l7,2.447c0.201,0.07,0.335,0.259,0.335,0.472v13.945
					C692.5,30.414,692.276,30.639,692,30.639z M685.5,29.639h6V16.548l-6-2.098V29.639z"/>
			</g>
			<g>
				<path fill="#FFFFFF" d="M690,30.639h-1c-0.276,0-0.5-0.225-0.5-0.5v-3.332c0-0.162,0.079-0.312,0.212-0.408
					c0.132-0.094,0.301-0.116,0.456-0.062l1,0.354c0.199,0.069,0.333,0.26,0.333,0.472v2.976
					C690.5,30.414,690.276,30.639,690,30.639z"/>
			</g>
			<g>
				<path fill="#FFFFFF" d="M685,30.639h-4c-0.276,0-0.5-0.225-0.5-0.5V16.193c0-0.174,0.09-0.336,0.239-0.427l4-2.447
					c0.152-0.094,0.348-0.097,0.505-0.01c0.158,0.089,0.255,0.256,0.255,0.438v16.392C685.5,30.414,685.276,30.639,685,30.639z
					 M681.5,29.639h3v-15l-3,1.836V29.639z"/>
			</g>
			<g>
				<path fill="#FFFFFF" d="M681,30.639h-3c-0.276,0-0.5-0.225-0.5-0.5V20.7c0-0.172,0.087-0.33,0.232-0.423
					c0.145-0.091,0.323-0.104,0.479-0.029l3,1.408c0.176,0.08,0.288,0.258,0.288,0.451v8.028
					C681.5,30.414,681.276,30.639,681,30.639z M678.5,29.639h2v-7.213l-2-0.938V29.639z"/>
			</g>
			<g>
				<path fill="#FFFFFF" d="M678,30.639h-2c-0.276,0-0.5-0.225-0.5-0.5v-8.029c0-0.164,0.079-0.314,0.212-0.408l2-1.408
					c0.153-0.108,0.354-0.121,0.519-0.034c0.166,0.086,0.271,0.257,0.271,0.443v9.438C678.5,30.414,678.276,30.639,678,30.639z
					 M676.5,29.639h1v-7.975l-1,0.704V29.639z"/>
			</g>
			<g>
				<path fill="#FFFFFF" d="M695.5,30.639h-22c-0.276,0-0.5-0.225-0.5-0.5c0-0.277,0.224-0.5,0.5-0.5h22c0.276,0,0.5,0.223,0.5,0.5
					C696,30.414,695.776,30.639,695.5,30.639z"/>
			</g>
			<g>
				<path fill="#FFFFFF" d="M687.432,17.875c-0.128,0-0.256-0.049-0.354-0.146c-0.195-0.194-0.195-0.512,0-0.707l1.997-1.997
					c0.193-0.194,0.512-0.194,0.707,0c0.193,0.195,0.193,0.513,0,0.707l-1.997,1.997C687.688,17.826,687.56,17.875,687.432,17.875z"
					/>
			</g>
			<g>
				<path fill="#FFFFFF" d="M686.9,21.312c-0.128,0-0.256-0.049-0.354-0.146c-0.195-0.195-0.195-0.513,0-0.707l4.62-4.62
					c0.195-0.195,0.512-0.195,0.707,0c0.195,0.195,0.195,0.512,0,0.707l-4.62,4.62C687.156,21.266,687.028,21.312,686.9,21.312z"/>
			</g>
		</g>
	</g>
</g>
</svg>
