<?xml version="1.0" encoding="utf-8"?>
<!-- Generator: Adobe Illustrator 16.0.4, SVG Export Plug-In . SVG Version: 6.00 Build 0)  -->
<!DOCTYPE svg PUBLIC "-//W3C//DTD SVG 1.1//EN" "http://www.w3.org/Graphics/SVG/1.1/DTD/svg11.dtd">
<svg version="1.1" id="maquette_techonmap_oct_2014.fw-Sprite"
	 xmlns="http://www.w3.org/2000/svg" xmlns:xlink="http://www.w3.org/1999/xlink" x="0px" y="0px" width="33px" height="40px"
	 viewBox="0 0 33 40" enable-background="new 0 0 33 40" xml:space="preserve">
<g>
	<g>
		<path fill="#E2A223" d="M12.025,31.379l-0.188-0.057C5.057,29.289,0.5,23.232,0.5,16.252c0-8.686,7.178-15.751,16-15.751
			c8.822,0,16,7.065,16,15.751c0,6.98-4.557,13.037-11.337,15.07l-0.188,0.057L16.5,39.012L12.025,31.379z"/>
		<path fill="#84540F" d="M16.5,1C25.047,1,32,7.842,32,16.252c0,6.758-4.413,12.621-10.98,14.59l-0.377,0.113l-0.197,0.34
			l-3.941,6.729l-3.944-6.729l-0.197-0.34l-0.377-0.113c-6.567-1.969-10.98-7.832-10.98-14.59C1,7.842,7.953,1,16.5,1 M16.5,0
			C7.387,0,0,7.275,0,16.252c0,7.326,4.926,13.521,11.693,15.549L16.5,40l4.807-8.199C28.075,29.771,33,23.578,33,16.252
			C33,7.275,25.613,0,16.5,0L16.5,0z"/>
	</g>
</g>
<g>
	<path fill="#FFFFFF" d="M13.585,11.76c-0.195,0.195-0.195,0.512,0.001,0.707c0.098,0.097,0.225,0.146,0.353,0.146
		s0.256-0.049,0.354-0.147c1.315-1.319,3.617-1.319,4.936-0.002c0.194,0.195,0.512,0.195,0.707,0c0.194-0.195,0.194-0.512,0-0.707
		c-0.848-0.847-1.975-1.313-3.173-1.313C15.561,10.443,14.433,10.911,13.585,11.76z"/>
	<path fill="#FFFFFF" d="M21.592,10.805c0.195-0.196,0.195-0.512,0-0.708c-1.292-1.29-3.007-2-4.831-2
		c-1.826,0-3.543,0.711-4.836,2.002c-0.195,0.195-0.195,0.512,0,0.707c0.098,0.098,0.226,0.146,0.354,0.146
		c0.128,0,0.256-0.049,0.354-0.146c1.104-1.103,2.57-1.709,4.129-1.709c1.556,0,3.021,0.606,4.125,1.708
		C21.08,11,21.396,11,21.592,10.805z"/>
	<path fill="#FFFFFF" d="M10.62,9.297c0.128,0,0.256-0.049,0.354-0.146c1.545-1.548,3.601-2.4,5.788-2.4
		c2.177,0,4.232,0.85,5.782,2.394c0.194,0.194,0.513,0.194,0.707-0.001c0.194-0.196,0.194-0.512-0.002-0.708
		c-1.737-1.731-4.042-2.685-6.487-2.685c-2.454,0-4.761,0.957-6.496,2.693c-0.195,0.196-0.195,0.512,0,0.708
		C10.364,9.248,10.492,9.297,10.62,9.297z"/>
	<path fill="#FFFFFF" d="M24,23.5h-1v-5.955c0-0.162-0.079-0.314-0.211-0.408L18.87,14.36c-0.085-0.06-0.187-0.092-0.289-0.092
		h-5.048c-0.011,0-0.019,0.009-0.029,0.009c-0.088,0.005-0.176,0.025-0.254,0.079l-4.033,2.777C9.081,17.227,9,17.38,9,17.545V23.5
		H8c-0.276,0-0.5,0.225-0.5,0.5s0.224,0.5,0.5,0.5h3.5h3H24c0.275,0,0.5-0.225,0.5-0.5S24.275,23.5,24,23.5z M12,23.5v-2h2v2H12z
		 M15,23.5V21c0-0.275-0.224-0.5-0.5-0.5h-3c-0.276,0-0.5,0.225-0.5,0.5v2.5h-1v-5.692l3.531-2.431L17,17.805V23.5H15z M18,23.5
		v-5.955c0-0.163-0.08-0.316-0.213-0.41l-2.668-1.867h3.303L22,17.803V23.5H18z"/>
</g>
</svg>
