<?xml version="1.0" encoding="utf-8"?>
<!-- Generator: Adobe Illustrator 16.0.4, SVG Export Plug-In . SVG Version: 6.00 Build 0)  -->
<!DOCTYPE svg PUBLIC "-//W3C//DTD SVG 1.1//EN" "http://www.w3.org/Graphics/SVG/1.1/DTD/svg11.dtd">
<svg version="1.1" id="maquette_techonmap_oct_2014.fw-Sprite"
	 xmlns="http://www.w3.org/2000/svg" xmlns:xlink="http://www.w3.org/1999/xlink" x="0px" y="0px" width="33px" height="40px"
	 viewBox="407.25 8.138 33 40" enable-background="new 407.25 8.138 33 40" xml:space="preserve">
<g>
	<path fill="#7FA1B6" d="M440.25,24.391c0-8.978-7.387-16.252-16.5-16.252s-16.5,7.275-16.5,16.252
		c0,7.327,4.926,13.521,11.693,15.549l4.807,8.199l4.806-8.199C435.324,37.911,440.25,31.718,440.25,24.391z"/>
	<g>
		<g>
			<path fill="#FFFFFF" d="M423.491,32.139c-4.628,0-7.933-2.09-8.071-2.18c-0.191-0.124-0.291-0.333-0.254-0.543l0.984-5.729
				c0.027-0.166,0.137-0.311,0.293-0.396c0.156-0.089,0.349-0.106,0.522-0.053l6.782,2.052l6.782-2.052
				c0.175-0.054,0.366-0.034,0.521,0.052c0.157,0.086,0.267,0.229,0.293,0.395l0.985,5.676c0.038,0.22-0.07,0.438-0.276,0.56
				C431.904,30.009,428.229,32.139,423.491,32.139z M416.463,29.227c0.895,0.488,3.59,1.787,7.028,1.787
				c3.58,0,6.562-1.354,7.542-1.854l-0.808-4.644l-6.277,1.899c-0.13,0.039-0.271,0.039-0.398,0l-6.276-1.899L416.463,29.227z"/>
		</g>
		<g>
			<path fill="#FFFFFF" d="M423.75,26.445c-0.067,0-0.134-0.01-0.199-0.027l-11.875-3.593c-0.254-0.077-0.426-0.292-0.426-0.533
				s0.171-0.456,0.426-0.533l11.875-3.591c0.13-0.039,0.271-0.039,0.398,0l11.875,3.591c0.254,0.077,0.426,0.292,0.426,0.533
				s-0.171,0.456-0.426,0.533l-11.875,3.593C423.884,26.438,423.817,26.445,423.75,26.445z M413.837,22.291l9.913,3l9.913-3
				l-9.913-2.998L413.837,22.291z"/>
		</g>
		<g>
			<path fill="#FFFFFF" d="M427.906,28.271c-0.323,0-0.6-0.242-0.623-0.537l-0.253-2.989l-3.758-1.688
				c-0.323-0.111-0.487-0.438-0.366-0.728c0.122-0.291,0.48-0.438,0.805-0.331l4.131,1.811c0.229,0.076,0.388,0.268,0.404,0.483
				l0.284,3.356c0.024,0.312-0.231,0.623-0.576,0.623C427.938,28.271,427.922,28.271,427.906,28.271z"/>
		</g>
	</g>
</g>
</svg>
