<?xml version="1.0" encoding="utf-8"?>
<!-- Generator: Adobe Illustrator 16.0.4, SVG Export Plug-In . SVG Version: 6.00 Build 0)  -->
<!DOCTYPE svg PUBLIC "-//W3C//DTD SVG 1.1//EN" "http://www.w3.org/Graphics/SVG/1.1/DTD/svg11.dtd">
<svg version="1.1" id="maquette_techonmap_oct_2014.fw-Sprite"
	 xmlns="http://www.w3.org/2000/svg" xmlns:xlink="http://www.w3.org/1999/xlink" x="0px" y="0px" width="33px" height="40px"
	 viewBox="350.75 9.138 33 40" enable-background="new 350.75 9.138 33 40" xml:space="preserve">
<g>
	<g>
		<path fill="#A3CEED" d="M362.775,40.517l-0.188-0.056c-6.781-2.033-11.337-8.089-11.337-15.07c0-8.686,7.178-15.752,16-15.752
			s16,7.066,16,15.752c0,6.981-4.556,13.037-11.337,15.07l-0.188,0.056l-4.475,7.634L362.775,40.517z"/>
		<path fill="#7FA1B6" d="M367.25,10.138c8.547,0,15.5,6.842,15.5,15.252c0,6.759-4.413,12.622-10.98,14.591l-0.377,0.113
			l-0.198,0.339l-3.944,6.728l-3.944-6.728l-0.198-0.339l-0.377-0.113c-6.567-1.969-10.98-7.832-10.98-14.591
			C351.75,16.98,358.703,10.138,367.25,10.138 M367.25,9.138c-9.113,0-16.5,7.275-16.5,16.252c0,7.327,4.926,13.521,11.693,15.549
			l4.807,8.199l4.807-8.199c6.768-2.028,11.693-8.222,11.693-15.549C383.75,16.413,376.363,9.138,367.25,9.138L367.25,9.138z"/>
	</g>
	<g>
		<g>
			<path fill="#FFFFFF" d="M366.991,33.139c-4.628,0-7.933-2.09-8.071-2.18c-0.191-0.124-0.291-0.333-0.254-0.543l0.984-5.729
				c0.027-0.166,0.137-0.311,0.293-0.396c0.156-0.089,0.349-0.106,0.522-0.053l6.782,2.052l6.781-2.052
				c0.176-0.054,0.367-0.034,0.522,0.052c0.157,0.086,0.267,0.229,0.294,0.395l0.984,5.676c0.038,0.22-0.07,0.438-0.275,0.56
				C375.404,31.009,371.729,33.139,366.991,33.139z M359.963,30.227c0.895,0.488,3.59,1.787,7.028,1.787
				c3.579,0,6.562-1.354,7.542-1.854l-0.807-4.644l-6.278,1.899c-0.13,0.039-0.271,0.039-0.398,0l-6.276-1.899L359.963,30.227z"/>
		</g>
		<g>
			<path fill="#FFFFFF" d="M367.25,27.445c-0.066,0-0.134-0.01-0.199-0.027l-11.875-3.593c-0.254-0.077-0.426-0.292-0.426-0.533
				s0.171-0.456,0.426-0.533l11.875-3.591c0.131-0.039,0.27-0.039,0.398,0l11.875,3.591c0.254,0.077,0.426,0.292,0.426,0.533
				s-0.171,0.456-0.426,0.533l-11.875,3.593C367.384,27.438,367.316,27.445,367.25,27.445z M357.337,23.291l9.913,3l9.913-3
				l-9.913-2.998L357.337,23.291z"/>
		</g>
		<g>
			<path fill="#FFFFFF" d="M371.406,29.271c-0.323,0-0.6-0.242-0.623-0.537l-0.253-2.989l-3.759-1.688
				c-0.322-0.111-0.486-0.438-0.365-0.728c0.121-0.291,0.48-0.438,0.805-0.331l4.131,1.811c0.229,0.076,0.387,0.268,0.404,0.483
				l0.284,3.356c0.024,0.312-0.231,0.623-0.576,0.623C371.438,29.271,371.422,29.271,371.406,29.271z"/>
		</g>
	</g>
</g>
</svg>
