<?xml version="1.0" encoding="utf-8"?>
<!-- Generator: Adobe Illustrator 16.0.4, SVG Export Plug-In . SVG Version: 6.00 Build 0)  -->
<!DOCTYPE svg PUBLIC "-//W3C//DTD SVG 1.1//EN" "http://www.w3.org/Graphics/SVG/1.1/DTD/svg11.dtd">
<svg version="1.1" id="maquette_techonmap_oct_2014.fw-Sprite"
	 xmlns="http://www.w3.org/2000/svg" xmlns:xlink="http://www.w3.org/1999/xlink" x="0px" y="0px" width="33px" height="40px"
	 viewBox="118.25 10.638 33 40" enable-background="new 118.25 10.638 33 40" xml:space="preserve">
<g>
	<g>
		<path fill="#385F98" d="M130.275,42.017l-0.188-0.056c-6.781-2.033-11.337-8.089-11.337-15.07c0-8.686,7.178-15.752,16-15.752
			s16,7.066,16,15.752c0,6.981-4.556,13.037-11.337,15.07l-0.188,0.056l-4.475,7.634L130.275,42.017z"/>
		<path fill="#253F5F" d="M134.75,11.638c8.547,0,15.5,6.842,15.5,15.252c0,6.759-4.413,12.622-10.98,14.591l-0.377,0.113
			l-0.198,0.339l-3.944,6.728l-3.944-6.728l-0.198-0.339l-0.377-0.113c-6.567-1.969-10.98-7.832-10.98-14.591
			C119.25,18.48,126.203,11.638,134.75,11.638 M134.75,10.638c-9.113,0-16.5,7.276-16.5,16.252c0,7.327,4.926,13.521,11.693,15.549
			l4.807,8.199l4.807-8.199c6.768-2.028,11.693-8.222,11.693-15.549C151.25,17.914,143.863,10.638,134.75,10.638L134.75,10.638z"/>
	</g>
	<g>
		<g>
			<g>
				<path fill="#FFFFFF" d="M135.75,32.773c-0.245,0-0.458-0.18-0.494-0.428c-0.04-0.273,0.15-0.527,0.424-0.566
					c0.445-0.063,0.834-0.174,1.182-0.334c0.166-1.514,1.082-2.479,1.99-2.932c0.109-0.57,0.164-1.215,0.164-1.923
					c0-6.407-3.324-9.46-4.295-10.216c-0.974,0.756-4.297,3.809-4.297,10.216c0,0.708,0.055,1.353,0.164,1.923
					c0.91,0.452,1.824,1.418,1.991,2.932c0.323,0.147,0.69,0.257,1.091,0.318c0.271,0.045,0.458,0.301,0.415,0.573
					c-0.043,0.271-0.302,0.456-0.573,0.415c-0.615-0.1-1.172-0.285-1.652-0.553c-0.151-0.084-0.25-0.241-0.256-0.415
					c-0.076-1.705-1.271-2.312-1.638-2.455c-0.153-0.062-0.267-0.193-0.303-0.354c-0.159-0.697-0.24-1.5-0.24-2.385
					c0-8.053,4.828-11.13,5.033-11.257c0.161-0.101,0.364-0.101,0.526,0c0.205,0.127,5.033,3.204,5.033,11.257
					c0,0.885-0.082,1.688-0.24,2.385c-0.036,0.16-0.15,0.293-0.303,0.354c-0.365,0.146-1.562,0.75-1.639,2.455
					c-0.007,0.174-0.104,0.33-0.256,0.415c-0.505,0.281-1.098,0.474-1.76,0.568C135.797,32.771,135.773,32.773,135.75,32.773z"/>
			</g>
			<g>
				<path fill="#FFFFFF" d="M141.759,35.639h-0.725c-0.13,0-0.255-0.052-0.349-0.142c-1.01-0.978-3.652-3.187-3.681-3.208
					c-0.112-0.096-0.18-0.234-0.18-0.385c0-2.272,1.584-3.367,2.422-3.631c0.119-0.034,0.251-0.027,0.364,0.027
					c4.76,2.288,2.619,7,2.599,7.047C142.129,35.525,141.953,35.639,141.759,35.639z M141.234,34.639h0.186
					c0.324-0.914,1.016-3.738-2.045-5.338c-0.417,0.194-1.448,0.83-1.541,2.377C138.432,32.18,140.287,33.745,141.234,34.639z"/>
			</g>
			<g>
				<path fill="#FFFFFF" d="M128.402,35.639h-0.726c-0.192,0-0.37-0.113-0.452-0.289c-0.021-0.047-2.16-4.759,2.598-7.047
					c0.115-0.056,0.246-0.062,0.365-0.027c0.838,0.264,2.422,1.356,2.422,3.632c0,0.147-0.065,0.288-0.18,0.384
					c-0.025,0.021-2.672,2.23-3.681,3.208C128.658,35.587,128.533,35.639,128.402,35.639z M128.016,34.639h0.188
					c0.948-0.894,2.804-2.459,3.399-2.961c-0.092-1.546-1.121-2.181-1.541-2.377C126.986,30.907,127.688,33.727,128.016,34.639z"/>
			</g>
			<g>
				<g>
					<path fill="#FFFFFF" d="M141.759,35.639h-0.725c-0.13,0-0.255-0.052-0.349-0.142c-1.011-0.978-3.654-3.212-3.683-3.233
						c-0.11-0.096-0.177-0.234-0.177-0.383c0-2.279,1.591-3.34,2.432-3.583c0.117-0.034,0.245-0.024,0.354,0.03
						c4.761,2.289,2.619,6.977,2.598,7.021C142.128,35.525,141.952,35.639,141.759,35.639z M141.234,34.639h0.187
						c0.324-0.91,1.015-3.719-2.052-5.313c-0.412,0.182-1.443,0.788-1.535,2.329C138.428,32.159,140.287,33.743,141.234,34.639z"/>
				</g>
				<g>
					<path fill="#FFFFFF" d="M128.402,35.639h-0.726c-0.192,0-0.368-0.111-0.45-0.287c-0.022-0.047-2.164-4.732,2.596-7.021
						c0.109-0.057,0.236-0.064,0.354-0.03c0.842,0.243,2.434,1.304,2.434,3.583c0,0.146-0.065,0.287-0.178,0.383
						c-0.027,0.021-2.673,2.258-3.683,3.233C128.658,35.587,128.533,35.639,128.402,35.639z M128.016,34.639h0.188
						c0.946-0.896,2.806-2.479,3.399-2.984c-0.092-1.539-1.121-2.146-1.537-2.329C126.986,30.928,127.688,33.73,128.016,34.639z"/>
				</g>
			</g>
		</g>
		<g>
			<path fill="#FFFFFF" d="M134.688,25.576c-1.103,0-2-0.896-2-2.001s0.897-2.001,2-2.001c1.104,0,2,0.896,2,2.001
				S135.791,25.576,134.688,25.576z M134.688,22.574c-0.551,0-1,0.447-1,1.001c0,0.552,0.449,1.001,1,1.001c0.554,0,1-0.449,1-1.001
				S135.238,22.574,134.688,22.574z"/>
		</g>
		<g>
			<path fill="#FFFFFF" d="M134.75,22.139c-0.275,0-0.5-0.225-0.5-0.5v-5c0-0.276,0.225-0.5,0.5-0.5s0.5,0.224,0.5,0.5v5
				C135.25,21.914,135.025,22.139,134.75,22.139z"/>
		</g>
		<g>
			<path fill="#FFFFFF" d="M134.75,29.139c-0.275,0-0.5-0.225-0.5-0.5v-3c0-0.277,0.225-0.5,0.5-0.5s0.5,0.223,0.5,0.5v3
				C135.25,28.914,135.025,29.139,134.75,29.139z"/>
		</g>
		<g>
			<path fill="#FFFFFF" d="M134.833,36.639h-0.166c-0.781,0-1.417-0.637-1.417-1.418v-5.166c0-0.781,0.636-1.416,1.417-1.416h0.166
				c0.78,0,1.417,0.635,1.417,1.416v5.166C136.25,36.002,135.613,36.639,134.833,36.639z M134.667,29.639
				c-0.229,0-0.417,0.188-0.417,0.416v5.166c0,0.229,0.188,0.418,0.417,0.418h0.166c0.229,0,0.417-0.188,0.417-0.418v-5.166
				c0-0.229-0.188-0.416-0.417-0.416H134.667z"/>
		</g>
	</g>
</g>
</svg>
