<?xml version="1.0" encoding="utf-8"?>
<!-- Generator: Adobe Illustrator 16.0.4, SVG Export Plug-In . SVG Version: 6.00 Build 0)  -->
<!DOCTYPE svg PUBLIC "-//W3C//DTD SVG 1.1//EN" "http://www.w3.org/Graphics/SVG/1.1/DTD/svg11.dtd">
<svg version="1.1" id="maquette_techonmap_oct_2014.fw-Sprite"
	 xmlns="http://www.w3.org/2000/svg" xmlns:xlink="http://www.w3.org/1999/xlink" x="0px" y="0px" width="33px" height="40px"
	 viewBox="0.25 12.138 33 40" enable-background="new 0.25 12.138 33 40" xml:space="preserve">
<g>
	<g>
		<path fill="#8E5EAE" d="M12.276,43.517l-0.188-0.056C5.306,41.429,0.75,35.372,0.75,28.391c0-8.686,7.178-15.752,16-15.752
			s16,7.066,16,15.752c0,6.981-4.556,13.037-11.337,15.07l-0.188,0.056L16.75,51.15L12.276,43.517z"/>
		<path fill="#5B3F71" d="M16.75,13.138c8.547,0,15.5,6.842,15.5,15.252c0,6.759-4.413,12.622-10.98,14.591l-0.376,0.113
			l-0.199,0.339l-3.944,6.728l-3.943-6.728l-0.199-0.339l-0.377-0.113C5.663,41.013,1.25,35.149,1.25,28.391
			C1.25,19.98,8.203,13.138,16.75,13.138 M16.75,12.138c-9.113,0-16.5,7.276-16.5,16.252c0,7.327,4.926,13.521,11.694,15.549
			l4.806,8.199l4.807-8.199c6.768-2.028,11.693-8.222,11.693-15.549C33.25,19.414,25.863,12.138,16.75,12.138L16.75,12.138z"/>
	</g>
	<g>
		<g>
			<path fill="#FFFFFF" d="M20.645,19.45c-1.369,0-2.291,2.438-2.469,3.638c-0.078,0.527,0.165,0.948,0.615,1.221
				c1.578,0.961,5.674,4.258,5.674,7.238c0,6.092-5.837,6.278-7.756,6.278h-0.08c-5.039,0-7.593-2.273-7.593-6.354
				c0-2.979,4.042-6.184,5.599-7.125c0.367-0.222,0.603-0.666,0.629-1.101c0.123-2.028-1.042-2.854-2.07-3.744l-0.264-0.05h3.784
				h3.456l0,0 M22.126,18.138h-5.412h-5.266c0,0-0.527,1.073,0.611,2.075c1.138,1,2.013,1.495,1.921,3.002
				c0,0-6.23,3.909-6.23,8.307c0,6.824,6.102,7.617,8.878,7.617c0.029,0,0.057,0,0.085,0c2.732,0,9.036-0.75,9.036-7.643
				c0-4.396-6.304-8.314-6.304-8.314c0.129-0.869,0.929-1.918,2.069-2.917C22.652,19.262,22.126,18.138,22.126,18.138L22.126,18.138
				z"/>
		</g>
		<g>
			<path fill="#FFFFFF" d="M20.17,23.389h-6.429c-0.355,0-0.643-0.293-0.643-0.656c0-0.362,0.288-0.655,0.643-0.655h6.429
				c0.355,0,0.643,0.293,0.643,0.655C20.812,23.096,20.525,23.389,20.17,23.389z"/>
		</g>
		<g>
			<path fill="#FFFFFF" d="M15.781,29.359c-0.073,0-0.146-0.014-0.219-0.041c-0.334-0.123-0.506-0.498-0.386-0.84l1.83-5.164
				c0.121-0.342,0.491-0.517,0.823-0.394c0.334,0.123,0.507,0.499,0.386,0.84l-1.831,5.164
				C16.291,29.193,16.044,29.359,15.781,29.359z"/>
		</g>
		<g>
			<path fill="#FFFFFF" d="M19.443,29.359c-0.264,0-0.51-0.166-0.604-0.435l-1.832-5.164c-0.12-0.341,0.052-0.717,0.386-0.84
				c0.338-0.122,0.703,0.054,0.824,0.394l1.831,5.164c0.121,0.342-0.052,0.717-0.385,0.84
				C19.589,29.348,19.516,29.359,19.443,29.359z"/>
		</g>
	</g>
</g>
</svg>
