<?xml version="1.0" encoding="utf-8"?>
<!-- Generator: Adobe Illustrator 16.0.4, SVG Export Plug-In . SVG Version: 6.00 Build 0)  -->
<!DOCTYPE svg PUBLIC "-//W3C//DTD SVG 1.1//EN" "http://www.w3.org/Graphics/SVG/1.1/DTD/svg11.dtd">
<svg version="1.1" id="maquette_techonmap_oct_2014.fw-Sprite"
	 xmlns="http://www.w3.org/2000/svg" xmlns:xlink="http://www.w3.org/1999/xlink" x="0px" y="0px" width="33px" height="40px"
	 viewBox="66.25 11.138 33 40" enable-background="new 66.25 11.138 33 40" xml:space="preserve">
<g>
	<path fill="#5B3F71" d="M99.25,27.391c0-8.977-7.387-16.252-16.5-16.252s-16.5,7.276-16.5,16.252
		c0,7.327,4.926,13.521,11.693,15.549l4.807,8.199l4.807-8.199C94.324,40.911,99.25,34.718,99.25,27.391z"/>
	<g>
		<g>
			<path fill="#FFFFFF" d="M86.645,18.45c-1.369,0-2.291,2.439-2.469,3.638c-0.078,0.527,0.165,0.948,0.615,1.221
				c1.578,0.961,5.674,4.258,5.674,7.238c0,6.092-5.837,6.278-7.756,6.278h-0.08c-5.039,0-7.593-2.273-7.593-6.354
				c0-2.979,4.042-6.184,5.599-7.125c0.367-0.222,0.604-0.666,0.629-1.101c0.123-2.028-1.041-2.854-2.07-3.744l-0.264-0.05h3.784
				h3.456l0,0 M88.126,17.138h-5.412h-5.266c0,0-0.527,1.073,0.61,2.075c1.139,1,2.014,1.495,1.922,3.002c0,0-6.23,3.909-6.23,8.307
				c0,6.824,6.102,7.617,8.878,7.617c0.029,0,0.058,0,0.085,0c2.732,0,9.036-0.75,9.036-7.643c0-4.396-6.304-8.314-6.304-8.314
				c0.129-0.869,0.929-1.917,2.068-2.917C88.652,18.262,88.126,17.138,88.126,17.138L88.126,17.138z"/>
		</g>
		<g>
			<path fill="#FFFFFF" d="M86.17,22.389h-6.429c-0.355,0-0.644-0.293-0.644-0.656c0-0.362,0.288-0.655,0.644-0.655h6.429
				c0.355,0,0.643,0.293,0.643,0.655C86.812,22.096,86.525,22.389,86.17,22.389z"/>
		</g>
		<g>
			<path fill="#FFFFFF" d="M81.781,28.359c-0.073,0-0.146-0.014-0.219-0.041c-0.334-0.123-0.506-0.498-0.388-0.84l1.83-5.164
				c0.121-0.342,0.491-0.517,0.823-0.394c0.334,0.123,0.507,0.499,0.386,0.84l-1.831,5.164
				C82.291,28.193,82.044,28.359,81.781,28.359z"/>
		</g>
		<g>
			<path fill="#FFFFFF" d="M85.443,28.359c-0.264,0-0.51-0.166-0.604-0.435l-1.832-5.164c-0.12-0.341,0.052-0.717,0.386-0.84
				c0.338-0.122,0.703,0.054,0.824,0.394l1.831,5.164c0.121,0.342-0.052,0.717-0.385,0.84
				C85.589,28.348,85.516,28.359,85.443,28.359z"/>
		</g>
	</g>
</g>
</svg>
