<?xml version="1.0" encoding="utf-8"?>
<!-- Generator: Adobe Illustrator 16.0.4, SVG Export Plug-In . SVG Version: 6.00 Build 0)  -->
<!DOCTYPE svg PUBLIC "-//W3C//DTD SVG 1.1//EN" "http://www.w3.org/Graphics/SVG/1.1/DTD/svg11.dtd">
<svg version="1.1" id="maquette_techonmap_oct_2014.fw-Sprite"
	 xmlns="http://www.w3.org/2000/svg" xmlns:xlink="http://www.w3.org/1999/xlink" x="0px" y="0px" width="33px" height="40px"
	 viewBox="515.5 7.638 33 40" enable-background="new 515.5 7.638 33 40" xml:space="preserve">
<g>
	<path fill="#A44646" d="M548.5,23.891c0-8.978-7.387-16.252-16.5-16.252s-16.5,7.275-16.5,16.252
		c0,7.327,4.926,13.521,11.694,15.549L532,47.639l4.806-8.199C543.574,37.411,548.5,31.218,548.5,23.891z"/>
	<g>
		<g>
			<path fill="#FFFFFF" d="M540.354,20.638c-0.008,0-0.015-0.001-0.021,0h-16.666c-0.228,0-0.427-0.154-0.484-0.375
				c-0.057-0.221,0.042-0.452,0.241-0.562l8.333-4.621c0.151-0.084,0.334-0.084,0.485,0l8.262,4.582
				c0.202,0.063,0.35,0.253,0.35,0.477C540.854,20.414,540.629,20.638,540.354,20.638z M525.6,19.638H538.4l-6.4-3.55L525.6,19.638z
				"/>
		</g>
		<g>
			<path fill="#FFFFFF" d="M526,29.139c-0.276,0-0.5-0.225-0.5-0.5v-8c0-0.276,0.224-0.5,0.5-0.5s0.5,0.224,0.5,0.5v8
				C526.5,28.914,526.276,29.139,526,29.139z"/>
		</g>
		<g>
			<path fill="#FFFFFF" d="M539.5,29.639h-15c-0.276,0-0.5-0.225-0.5-0.5c0-0.277,0.224-0.5,0.5-0.5h15c0.276,0,0.5,0.223,0.5,0.5
				C540,29.414,539.776,29.639,539.5,29.639z"/>
		</g>
		<g>
			<path fill="#FFFFFF" d="M540.5,31.639h-17c-0.276,0-0.5-0.225-0.5-0.5c0-0.277,0.224-0.5,0.5-0.5h17c0.276,0,0.5,0.223,0.5,0.5
				C541,31.414,540.776,31.639,540.5,31.639z"/>
		</g>
		<g>
			<path fill="#FFFFFF" d="M529,29.139c-0.276,0-0.5-0.225-0.5-0.5v-8c0-0.276,0.224-0.5,0.5-0.5s0.5,0.224,0.5,0.5v8
				C529.5,28.914,529.276,29.139,529,29.139z"/>
		</g>
		<g>
			<path fill="#FFFFFF" d="M532,29.139c-0.276,0-0.5-0.225-0.5-0.5v-8c0-0.276,0.224-0.5,0.5-0.5s0.5,0.224,0.5,0.5v8
				C532.5,28.914,532.276,29.139,532,29.139z"/>
		</g>
		<g>
			<path fill="#FFFFFF" d="M535,29.139c-0.276,0-0.5-0.225-0.5-0.5v-8c0-0.276,0.224-0.5,0.5-0.5s0.5,0.224,0.5,0.5v8
				C535.5,28.914,535.276,29.139,535,29.139z"/>
		</g>
		<g>
			<path fill="#FFFFFF" d="M538,29.139c-0.276,0-0.5-0.225-0.5-0.5v-8c0-0.276,0.224-0.5,0.5-0.5s0.5,0.224,0.5,0.5v8
				C538.5,28.914,538.276,29.139,538,29.139z"/>
		</g>
	</g>
</g>
</svg>
