<?xml version="1.0" encoding="utf-8"?>
<!-- Generator: Adobe Illustrator 16.0.4, SVG Export Plug-In . SVG Version: 6.00 Build 0)  -->
<!DOCTYPE svg PUBLIC "-//W3C//DTD SVG 1.1//EN" "http://www.w3.org/Graphics/SVG/1.1/DTD/svg11.dtd">
<svg version="1.1" id="maquette_techonmap_oct_2014.fw-Sprite"
	 xmlns="http://www.w3.org/2000/svg" xmlns:xlink="http://www.w3.org/1999/xlink" x="0px" y="0px" width="33px" height="40px"
	 viewBox="459.75 7.888 33 40" enable-background="new 459.75 7.888 33 40" xml:space="preserve">
<g>
	<g>
		<path fill="#ED6464" d="M471.776,39.267l-0.188-0.056c-6.781-2.032-11.338-8.089-11.338-15.07c0-8.686,7.178-15.752,16-15.752
			s16,7.066,16,15.752c0,6.981-4.557,13.038-11.338,15.07l-0.188,0.056l-4.474,7.633L471.776,39.267z"/>
		<path fill="#A44646" d="M476.25,8.888c8.547,0,15.5,6.842,15.5,15.252c0,6.759-4.413,12.623-10.981,14.591l-0.377,0.113
			l-0.198,0.339l-3.943,6.728l-3.943-6.728l-0.198-0.339l-0.377-0.113c-6.568-1.968-10.981-7.832-10.981-14.591
			C460.75,15.73,467.703,8.888,476.25,8.888 M476.25,7.888c-9.113,0-16.5,7.275-16.5,16.252c0,7.327,4.926,13.521,11.694,15.549
			l4.806,8.199l4.806-8.199c6.769-2.028,11.694-8.222,11.694-15.549C492.75,15.163,485.363,7.888,476.25,7.888L476.25,7.888z"/>
	</g>
	<g>
		<g>
			<path fill="#FFFFFF" d="M484.603,20.888c-0.007,0-0.014-0.001-0.02,0h-16.666c-0.228,0-0.427-0.154-0.484-0.375
				c-0.057-0.221,0.042-0.452,0.241-0.562l8.333-4.621c0.151-0.084,0.334-0.084,0.485,0l8.262,4.582
				c0.202,0.063,0.349,0.253,0.349,0.477C485.103,20.664,484.879,20.888,484.603,20.888z M469.85,19.888h12.803l-6.4-3.55
				L469.85,19.888z"/>
		</g>
		<g>
			<path fill="#FFFFFF" d="M470.25,29.389c-0.276,0-0.5-0.225-0.5-0.5v-8c0-0.276,0.224-0.5,0.5-0.5s0.5,0.224,0.5,0.5v8
				C470.75,29.164,470.526,29.389,470.25,29.389z"/>
		</g>
		<g>
			<path fill="#FFFFFF" d="M483.75,29.889h-15c-0.276,0-0.5-0.225-0.5-0.5c0-0.277,0.224-0.5,0.5-0.5h15c0.276,0,0.5,0.223,0.5,0.5
				C484.25,29.664,484.026,29.889,483.75,29.889z"/>
		</g>
		<g>
			<path fill="#FFFFFF" d="M484.75,31.889h-17c-0.276,0-0.5-0.225-0.5-0.5c0-0.277,0.224-0.5,0.5-0.5h17c0.276,0,0.5,0.223,0.5,0.5
				C485.25,31.664,485.026,31.889,484.75,31.889z"/>
		</g>
		<g>
			<path fill="#FFFFFF" d="M473.25,29.389c-0.276,0-0.5-0.225-0.5-0.5v-8c0-0.276,0.224-0.5,0.5-0.5s0.5,0.224,0.5,0.5v8
				C473.75,29.164,473.526,29.389,473.25,29.389z"/>
		</g>
		<g>
			<path fill="#FFFFFF" d="M476.25,29.389c-0.276,0-0.5-0.225-0.5-0.5v-8c0-0.276,0.224-0.5,0.5-0.5s0.5,0.224,0.5,0.5v8
				C476.75,29.164,476.526,29.389,476.25,29.389z"/>
		</g>
		<g>
			<path fill="#FFFFFF" d="M479.25,29.389c-0.276,0-0.5-0.225-0.5-0.5v-8c0-0.276,0.224-0.5,0.5-0.5s0.5,0.224,0.5,0.5v8
				C479.75,29.164,479.526,29.389,479.25,29.389z"/>
		</g>
		<g>
			<path fill="#FFFFFF" d="M482.25,29.389c-0.276,0-0.5-0.225-0.5-0.5v-8c0-0.276,0.224-0.5,0.5-0.5s0.5,0.224,0.5,0.5v8
				C482.75,29.164,482.526,29.389,482.25,29.389z"/>
		</g>
	</g>
</g>
</svg>
