<svg width="32" height="32" xmlns="http://www.w3.org/2000/svg" xmlns:svg="http://www.w3.org/2000/svg">
 <metadata id="metadata3624">image/svg+xml</metadata>
 <g display="inline">
  <g id="g3594">
   <g id="g3596">
    <path d="m16.045,24.4115c-0.604,0 -1.303,-0.244 -2.01,-0.95l-6.938,-6.939c-0.109,-0.107 -0.171,-0.257 -0.171,-0.411c0,-0.154 0.062,-0.299 0.171,-0.407l6.065,-6.067c0.227,-0.228 0.598,-0.228 0.823,0l2.121,2.121c0.228,0.228 0.228,0.597 0,0.822c-0.228,0.225 -0.59,0.226 -0.817,0l-1.715,-1.712l-5.246,5.243l6.529,6.53c1.11,1.106 1.917,0.372 2.004,0.284l3.886,-3.888c0.227,-0.228 0.592,-0.228 0.819,0c0.227,0.228 0.228,0.595 0,0.82l-3.886,3.888c-0.316,0.316 -0.906,0.666 -1.635,0.666z" id="path3598"/>
   </g>
   <g id="g3600">
    <path d="m20.855,20.3315c-0.153,0 -0.304,-0.06 -0.411,-0.168l-3.837,-3.835l-0.649,0.65c-0.626,0.623 -1.717,0.623 -2.34,0l-0.302,-0.307c-0.647,-0.642 -0.647,-1.688 0,-2.338l4.699,-4.698c0.226,-0.228 0.597,-0.228 0.823,0l6.06499,6.067c0.228,0.225 0.228,0.591 0,0.818l-3.638,3.642c-0.109,0.109 -0.256,0.169 -0.41,0.169zm-4.248,-5.408c0.154,0 0.303,0.062 0.413,0.174l3.835,3.836l2.817,-2.822l-5.246,-5.243l-4.29,4.29c-0.191,0.189 -0.191,0.501 0,0.695l0.303,0.301c0.188,0.19 0.512,0.19 0.697,-0.001l1.06,-1.056c0.107,-0.113 0.259,-0.174 0.411,-0.174z" id="path3602"/>
   </g>
   <g id="g3604">
    <path d="m19.336,21.2435c-0.147,0 -0.295,-0.059 -0.408,-0.172l-1.819,-1.82c-0.228,-0.226 -0.228,-0.593 0,-0.82c0.228,-0.227 0.59,-0.228 0.817,0l1.821,1.821c0.228,0.228 0.228,0.593 0,0.819c-0.114,0.113 -0.26,0.172 -0.411,0.172z" id="path3606"/>
   </g>
   <g id="g3608">
    <path d="m17.515,23.0625c-0.147,0 -0.293,-0.058 -0.406,-0.172l-1.819,-1.819c-0.228,-0.227 -0.228,-0.592 0,-0.819c0.228,-0.227 0.59,-0.228 0.817,0l1.819,1.819c0.228,0.228 0.228,0.593 0,0.819c-0.113,0.115 -0.26,0.172 -0.411,0.172z" id="path3610"/>
   </g>
   <g id="g3612">
    <path d="m25.101,17.2975c-0.153,0 -0.304,-0.06 -0.41,-0.167l-6.676,-6.675c-0.108,-0.107 -0.168,-0.256 -0.168,-0.411c0,-0.153 0.06,-0.3 0.168,-0.408l1.82,-1.82c0.228,-0.227 0.598,-0.227 0.824,0l6.67,6.674c0.228,0.225 0.228,0.592 0,0.819l-1.818,1.821c-0.108,0.107 -0.256,0.167 -0.41,0.167zm-5.854,-7.253l5.854,5.854l0.998,-1.003l-5.851,-5.85l-1.001,0.999z" id="path3614"/>
   </g>
   <g id="g3616">
    <path d="m6.901,17.2975l0,0c-0.154,0 -0.303,-0.06 -0.412,-0.167l-1.82,-1.822c-0.226,-0.228 -0.226,-0.595 0,-0.819l6.672,-6.674c0.227,-0.227 0.597,-0.227 0.824,0l1.82,1.82c0.108,0.108 0.168,0.255 0.168,0.408c0,0.155 -0.06,0.304 -0.168,0.411l-6.676,6.675c-0.106,0.108 -0.255,0.168 -0.408,0.168zm-0.998,-2.402l0.998,1.003l5.854,-5.854l-1.002,-0.998l-5.85,5.849z" id="path3618"/>
   </g>
  </g>
 </g>
</svg>