<?xml version="1.0" encoding="UTF-8" standalone="no"?>
<!-- Created with Inkscape (http://www.inkscape.org/) -->

<svg
   xmlns:dc="http://purl.org/dc/elements/1.1/"
   xmlns:cc="http://creativecommons.org/ns#"
   xmlns:rdf="http://www.w3.org/1999/02/22-rdf-syntax-ns#"
   xmlns:svg="http://www.w3.org/2000/svg"
   xmlns="http://www.w3.org/2000/svg"
   version="1.1"
   width="32"
   height="32"
   viewBox="0 0 32.000001 32"
   id="Calque_1"
   xml:space="preserve"><metadata
     id="metadata3295"><rdf:RDF><cc:Work
         rdf:about=""><dc:format>image/svg+xml</dc:format><dc:type
           rdf:resource="http://purl.org/dc/dcmitype/StillImage" /><dc:title></dc:title></cc:Work></rdf:RDF></metadata><defs
     id="defs3293" /><g
     transform="matrix(1.3333334,0,0,1.4496256,-5.5840004,-4.6165756)"
     id="g3281"><g
       id="g3283"><path
         d="m 22.732,19.5 c -2.396,0 -4.003,-1.146 -4.479,-1.473 -3.66,-0.076 -6.609,-2.818 -6.609,-6.062 0,-3.294 3.038,-6.021 6.771,-6.021 3.734,0 6.773,2.656 6.773,5.95 0,1.719 -0.826,3.317 -2.279,4.453 l 0.405,2.189 c 0.026,0.146 -0.012,0.481 -0.105,0.595 -0.095,0.114 -0.233,0.369 -0.381,0.369 -0.002,0 -0.095,0 -0.096,0 z M 18.415,6.896 c -3.182,0 -5.771,2.231 -5.771,4.974 0,2.74 2.59,4.97 5.771,4.97 0.111,0 0.221,0.038 0.309,0.105 0.014,0.012 1.334,1.016 3.496,1.159 L 21.87,16.21 c -0.035,-0.191 0.043,-0.387 0.202,-0.499 1.345,-0.952 2.116,-2.353 2.116,-3.842 0,-2.741 -2.589,-4.973 -5.773,-4.973 z"
         id="path3285" /></g><g
       id="g3287"><path
         d="m 9.648,22.5 c -0.033,0 -0.066,0 -0.1,0 C 9.401,22.5 9.261,22.412 9.167,22.299 9.073,22.186 9.035,22.027 9.062,21.881 L 9.467,19.682 C 8.014,18.546 7.188,16.933 7.188,15.213 c 0,-2.819 2.176,-5.218 5.292,-5.832 l 0.193,0.98 c -2.599,0.513 -4.485,2.552 -4.485,4.85 0,1.49 0.771,2.891 2.115,3.842 0.16,0.112 0.238,0.308 0.203,0.499 l -0.35,1.894 c 2.162,-0.143 3.482,-1.146 3.496,-1.158 0.088,-0.067 0.197,-0.105 0.309,-0.105 2.082,0 4.012,-0.974 5.036,-2.542 l 0.837,0.547 c -1.18,1.806 -3.355,2.962 -5.711,3.012 -0.476,0.324 -2.081,1.3 -4.475,1.3 z"
         id="path3289" /></g></g></svg>