<?xml version="1.0" encoding="UTF-8" standalone="no"?>
<!-- Created with Inkscape (http://www.inkscape.org/) -->

<svg
   xmlns:dc="http://purl.org/dc/elements/1.1/"
   xmlns:cc="http://creativecommons.org/ns#"
   xmlns:rdf="http://www.w3.org/1999/02/22-rdf-syntax-ns#"
   xmlns:svg="http://www.w3.org/2000/svg"
   xmlns="http://www.w3.org/2000/svg"
   version="1.1"
   width="32"
   height="32"
   viewBox="0 0 32.000001 32"
   id="Calque_1"
   xml:space="preserve"><metadata
     id="metadata3434"><rdf:RDF><cc:Work
         rdf:about=""><dc:format>image/svg+xml</dc:format><dc:type
           rdf:resource="http://purl.org/dc/dcmitype/StillImage" /><dc:title></dc:title></cc:Work></rdf:RDF></metadata><defs
     id="defs3432" /><g
     transform="matrix(1.0434783,0,0,1.0317574,-0.73947844,1.7854593)"
     id="g3396"><g
       id="g3398"><path
         d="m 23.542,22.5 h -7 c -0.276,0 -0.5,-0.278 -0.5,-0.554 V 5.554 c 0,-0.162 0.078,-0.314 0.211,-0.408 0.133,-0.093 0.303,-0.118 0.454,-0.063 l 7,2.447 c 0.2,0.07 0.335,0.259 0.335,0.472 v 13.944 c 0,0.276 -0.224,0.554 -0.5,0.554 z m -6.5,-1 h 6 V 8.356 l -6,-2.098 V 21.5 z"
         id="path3400" /></g><g
       id="g3402"><path
         d="m 21.542,22.5 h -1 c -0.276,0 -0.5,-0.278 -0.5,-0.554 v -3.331 c 0,-0.162 0.079,-0.314 0.212,-0.408 0.132,-0.094 0.302,-0.118 0.456,-0.062 l 1,0.355 c 0.199,0.07 0.332,0.259 0.332,0.471 v 2.976 c 0,0.275 -0.224,0.553 -0.5,0.553 z"
         id="path3404" /></g><g
       id="g3406"><path
         d="m 16.542,22.5 h -4 c -0.276,0 -0.5,-0.278 -0.5,-0.554 V 8.001 c 0,-0.174 0.09,-0.336 0.239,-0.427 l 4,-2.447 c 0.153,-0.094 0.348,-0.097 0.505,-0.01 0.158,0.089 0.256,0.256 0.256,0.437 v 16.392 c 0,0.276 -0.224,0.554 -0.5,0.554 z m -3.5,-1 h 3 V 6.446 l -3,1.836 V 21.5 z"
         id="path3408" /></g><g
       id="g3410"><path
         d="m 12.542,22.5 h -3 c -0.276,0 -0.5,-0.278 -0.5,-0.554 v -9.438 c 0,-0.171 0.088,-0.33 0.232,-0.422 0.145,-0.091 0.324,-0.104 0.48,-0.03 l 3,1.408 c 0.176,0.082 0.287,0.258 0.287,0.452 v 8.029 c 10e-4,0.277 -0.223,0.555 -0.499,0.555 z m -2.5,-1 h 2 v -7.266 l -2,-0.938 V 21.5 z"
         id="path3412" /></g><g
       id="g3414"><path
         d="m 9.542,22.5 h -2 c -0.276,0 -0.5,-0.278 -0.5,-0.554 v -8.029 c 0,-0.163 0.079,-0.315 0.212,-0.409 l 2,-1.408 c 0.153,-0.108 0.352,-0.121 0.519,-0.034 0.166,0.086 0.27,0.257 0.27,0.443 v 9.438 C 10.042,22.222 9.818,22.5 9.542,22.5 z m -1.5,-1 h 1 v -8.028 l -1,0.704 V 21.5 z"
         id="path3416" /></g><g
       id="g3418"><path
         d="m 27.042,22.5 h -22 c -0.276,0 -0.5,-0.224 -0.5,-0.5 0,-0.276 0.224,-0.5 0.5,-0.5 h 22 c 0.276,0 0.5,0.224 0.5,0.5 0,0.276 -0.224,0.5 -0.5,0.5 z"
         id="path3420" /></g><g
       id="g3422"><path
         d="m 18.974,9.683 c -0.128,0 -0.256,-0.049 -0.354,-0.146 -0.195,-0.195 -0.195,-0.512 0,-0.707 l 1.997,-1.997 c 0.195,-0.195 0.512,-0.195 0.707,0 0.195,0.195 0.195,0.512 0,0.707 l -1.997,1.997 c -0.098,0.097 -0.225,0.146 -0.353,0.146 z"
         id="path3424" /></g><g
       id="g3426"><path
         d="m 18.442,13.122 c -0.129,0 -0.256,-0.049 -0.354,-0.146 -0.195,-0.195 -0.195,-0.512 0,-0.707 l 4.619,-4.62 c 0.195,-0.195 0.512,-0.195 0.707,0 0.195,0.195 0.195,0.512 0,0.707 l -4.619,4.62 c -0.097,0.097 -0.226,0.146 -0.353,0.146 z"
         id="path3428" /></g></g></svg>