<?xml version="1.0" encoding="UTF-8" standalone="no"?>
<!-- Created with Inkscape (http://www.inkscape.org/) -->

<svg
   xmlns:dc="http://purl.org/dc/elements/1.1/"
   xmlns:cc="http://creativecommons.org/ns#"
   xmlns:rdf="http://www.w3.org/1999/02/22-rdf-syntax-ns#"
   xmlns:svg="http://www.w3.org/2000/svg"
   xmlns="http://www.w3.org/2000/svg"
   version="1.1"
   width="32"
   height="32"
   viewBox="0 0 32.000001 32"
   id="Calque_1"
   xml:space="preserve"><metadata
     id="metadata3557"><rdf:RDF><cc:Work
         rdf:about=""><dc:format>image/svg+xml</dc:format><dc:type
           rdf:resource="http://purl.org/dc/dcmitype/StillImage" /><dc:title></dc:title></cc:Work></rdf:RDF></metadata><defs
     id="defs3555" /><g
     transform="translate(-0.18800013,2.2500002)"
     id="g3527"><g
       id="g3529"><path
         d="m 23.188,16.75 h -14 c -0.277,0 -0.5,-0.224 -0.5,-0.5 v -7 c 0,-1.379 1.121,-2.5 2.5,-2.5 h 10 c 1.379,0 2.5,1.121 2.5,2.5 v 7 c 0,0.276 -0.224,0.5 -0.5,0.5 z m -13.5,-1 h 13 v -6.5 c 0,-0.827 -0.674,-1.5 -1.5,-1.5 h -10 c -0.828,0 -1.5,0.673 -1.5,1.5 v 6.5 z"
         id="path3531" /></g><g
       id="g3533"><path
         d="m 23.938,18.75 h -15.5 c -0.998,0 -1.75,-1.112 -1.75,-1.833 v -0.334 c 0,-0.317 0.141,-0.849 1.082,-0.849 0.096,0 0.201,0.003 0.312,0.007 0.111,0.005 0.23,0.009 0.355,0.009 h 15.5 c 0.123,0 0.242,-0.004 0.355,-0.009 0.111,-0.004 0.215,-0.007 0.312,-0.007 0.941,0 1.082,0.531 1.082,0.849 v 0.334 c 0.002,0.721 -0.749,1.833 -1.748,1.833 z m -16.25,-2 v 0.167 c 0,0.221 0.373,0.833 0.75,0.833 h 15.5 c 0.377,0 0.75,-0.612 0.75,-0.833 V 16.75 c -0.023,0 -0.051,0 -0.082,0 l -0.277,-0.001 c -0.123,0.004 -0.254,0.001 -0.391,0.001 h -15.5 c -0.137,0 -0.268,0 -0.393,0 H 7.771 c -0.032,0 -0.059,0 -0.083,0 z"
         id="path3535" /></g><g
       id="g3537"><path
         d="m 21.188,16.75 h -10 c -0.277,0 -0.5,-0.224 -0.5,-0.5 v -7 c 0,-0.276 0.223,-0.5 0.5,-0.5 h 10 c 0.275,0 0.5,0.224 0.5,0.5 v 7 c 0,0.276 -0.224,0.5 -0.5,0.5 z m -9.5,-1 h 9 v -6 h -9 v 6 z"
         id="path3539" /></g><g
       id="g3541"><path
         d="m 15.104,12.833 c -0.127,0 -0.256,-0.049 -0.354,-0.146 -0.195,-0.195 -0.195,-0.512 0,-0.707 l 2.584,-2.583 c 0.195,-0.195 0.512,-0.195 0.707,0 0.195,0.195 0.195,0.512 0,0.707 l -2.584,2.583 c -0.097,0.097 -0.224,0.146 -0.353,0.146 z"
         id="path3543" /></g><g
       id="g3545"><path
         d="m 16.104,14.917 c -0.127,0 -0.256,-0.049 -0.354,-0.146 -0.195,-0.195 -0.195,-0.512 0,-0.707 l 4.625,-4.625 c 0.195,-0.195 0.512,-0.195 0.707,0 0.195,0.195 0.195,0.512 0,0.707 l -4.625,4.625 c -0.097,0.097 -0.224,0.146 -0.353,0.146 z"
         id="path3547" /></g><g
       id="g3549"><path
         d="m 27.688,20.75 h -23 c -0.277,0 -0.5,-0.224 -0.5,-0.5 0,-0.276 0.223,-0.5 0.5,-0.5 h 23 c 0.275,0 0.5,0.224 0.5,0.5 0,0.276 -0.224,0.5 -0.5,0.5 z"
         id="path3551" /></g></g></svg>