<?xml version="1.0" encoding="UTF-8" standalone="no"?>
<!-- Created with Inkscape (http://www.inkscape.org/) -->

<svg
   xmlns:dc="http://purl.org/dc/elements/1.1/"
   xmlns:cc="http://creativecommons.org/ns#"
   xmlns:rdf="http://www.w3.org/1999/02/22-rdf-syntax-ns#"
   xmlns:svg="http://www.w3.org/2000/svg"
   xmlns="http://www.w3.org/2000/svg"
   version="1.1"
   width="32"
   height="32"
   viewBox="0 0 32.000001 32"
   id="Calque_1"
   xml:space="preserve"><metadata
     id="metadata3805"><rdf:RDF><cc:Work
         rdf:about=""><dc:format>image/svg+xml</dc:format><dc:type
           rdf:resource="http://purl.org/dc/dcmitype/StillImage" /><dc:title></dc:title></cc:Work></rdf:RDF></metadata><defs
     id="defs3803" /><g
     transform="matrix(0.99999996,0,0,0.99994441,1.3010001,-3.9982217)"
     id="g3807"><g
       transform="translate(0,10)"
       id="g3793"><polygon
         points="19.14,2.357 7.326,14.17 6.234,18.679 11.144,17.424 22.676,5.893 21.615,4.832 10.537,15.909 9.83,15.202 20.907,4.125 "
         id="polygon3795" /><rect
         width="5"
         height="2.3329999"
         x="19.938999"
         y="1.426"
         transform="matrix(-0.7072,-0.707,0.707,-0.7072,36.4756,20.2913)"
         id="rect3797" /></g><polygon
       points="18.698,20 4.699,20 4.699,6 13.666,6 15.667,4 2.699,4 2.699,22 20.698,22 20.698,9.95 18.698,11.95 "
       transform="matrix(1.3334075,0,0,1.3334075,-0.89986672,2.665036)"
       id="polygon3799" /></g></svg>