<?xml version="1.0" encoding="UTF-8" standalone="no"?>
<!-- Created with Inkscape (http://www.inkscape.org/) -->

<svg
   xmlns:dc="http://purl.org/dc/elements/1.1/"
   xmlns:cc="http://creativecommons.org/ns#"
   xmlns:rdf="http://www.w3.org/1999/02/22-rdf-syntax-ns#"
   xmlns:svg="http://www.w3.org/2000/svg"
   xmlns="http://www.w3.org/2000/svg"
   version="1.1"
   width="32"
   height="32"
   viewBox="0 0 32.000001 32"
   id="Calque_1"
   xml:space="preserve"><metadata
     id="metadata3511"><rdf:RDF><cc:Work
         rdf:about=""><dc:format>image/svg+xml</dc:format><dc:type
           rdf:resource="http://purl.org/dc/dcmitype/StillImage" /><dc:title></dc:title></cc:Work></rdf:RDF></metadata><defs
     id="defs3509" /><g
     transform="matrix(1.2,0,0,1.2856311,-3.4256003,-1.6779097)"
     id="g3493"><g
       id="g3495"><path
         d="m 15.981,19.973 c -3.703,0 -6.346,-1.857 -6.457,-1.937 -0.153,-0.11 -0.232,-0.297 -0.203,-0.483 l 0.788,-5.094 c 0.022,-0.146 0.108,-0.274 0.234,-0.351 0.126,-0.079 0.278,-0.095 0.419,-0.047 l 5.426,1.824 5.426,-1.824 c 0.14,-0.047 0.293,-0.03 0.419,0.046 0.126,0.077 0.212,0.205 0.234,0.351 l 0.788,5.046 c 0.03,0.194 -0.057,0.389 -0.221,0.496 -0.122,0.081 -3.063,1.973 -6.853,1.973 z m -5.622,-2.588 c 0.714,0.434 2.872,1.588 5.622,1.588 2.864,0 5.25,-1.203 6.034,-1.647 l -0.645,-4.127 -5.023,1.688 c -0.104,0.035 -0.215,0.035 -0.318,0 l -5.022,-1.688 -0.648,4.186 z"
         id="path3497" /></g><g
       id="g3499"><path
         d="m 16.188,14.914 c -0.055,0 -0.107,-0.009 -0.16,-0.026 l -9.5,-3.194 c -0.203,-0.068 -0.34,-0.259 -0.34,-0.474 0,-0.215 0.137,-0.405 0.34,-0.474 l 9.5,-3.192 c 0.104,-0.035 0.215,-0.035 0.318,0 l 9.5,3.192 c 0.205,0.068 0.342,0.259 0.342,0.474 0,0.215 -0.137,0.405 -0.342,0.474 l -9.5,3.194 c -0.05,0.017 -0.105,0.026 -0.158,0.026 z m -7.931,-3.695 7.932,2.667 7.93,-2.667 -7.93,-2.665 -7.932,2.665 z"
         id="path3501" /></g><g
       id="g3503"><path
         d="m 17.953,16.536 c -0.258,0 -0.478,-0.215 -0.498,-0.478 L 17.253,13.4 14.246,11.898 C 13.988,11.8 13.857,11.51 13.953,11.252 c 0.098,-0.259 0.386,-0.391 0.645,-0.295 l 3.305,1.609 c 0.182,0.068 0.309,0.236 0.323,0.431 l 0.228,2.985 c 0.021,0.275 -0.186,0.553 -0.461,0.553 -0.014,0.001 -0.026,0.001 -0.04,0.001 z"
         id="path3505" /></g></g></svg>