<?xml version="1.0" encoding="UTF-8" standalone="no"?>
<!-- Created with Inkscape (http://www.inkscape.org/) -->

<svg
   xmlns:dc="http://purl.org/dc/elements/1.1/"
   xmlns:cc="http://creativecommons.org/ns#"
   xmlns:rdf="http://www.w3.org/1999/02/22-rdf-syntax-ns#"
   xmlns:svg="http://www.w3.org/2000/svg"
   xmlns="http://www.w3.org/2000/svg"
   version="1.1"
   width="32"
   height="32"
   viewBox="0 0 32.000001 32"
   id="Calque_1"
   xml:space="preserve"><metadata
     id="metadata4298"><rdf:RDF><cc:Work
         rdf:about=""><dc:format>image/svg+xml</dc:format><dc:type
           rdf:resource="http://purl.org/dc/dcmitype/StillImage" /><dc:title></dc:title></cc:Work></rdf:RDF></metadata><defs
     id="defs4296" /><g
     transform="matrix(1.001069,0,0,1.122702,-0.20494835,0.5634089)"
     id="g4252"><g
       id="g4254"><g
         id="g4256"><path
           d="m 16.452,3.136 c -0.162,-0.1 -0.365,-0.1 -0.527,0 -0.205,0.127 -5.033,3.204 -5.033,11.257 0,0.884 0.08,1.687 0.24,2.385 0.035,0.16 0.15,0.293 0.303,0.354 0.365,0.145 1.562,0.75 1.637,2.455 0.008,0.174 0.104,0.331 0.256,0.415 0.48,0.268 1.037,0.454 1.652,0.553 0.271,0.041 0.529,-0.143 0.574,-0.415 0.043,-0.272 -0.143,-0.529 -0.416,-0.573 -0.4,-0.063 -0.766,-0.171 -1.09,-0.319 -0.168,-1.514 -1.082,-2.479 -1.992,-2.932 -0.109,-0.569 -0.164,-1.214 -0.164,-1.922 0,-6.407 3.324,-9.46 4.297,-10.216 0.973,0.756 4.297,3.809 4.297,10.216 0,0.708 -0.057,1.353 -0.164,1.922 -0.91,0.452 -1.824,1.418 -1.992,2.932 -0.346,0.16 -0.736,0.27 -1.182,0.334 -0.008,10e-4 -0.014,0.007 -0.021,0.008 0,0.467 0,0.703 0,0.971 0.031,0.006 0.061,0.017 0.094,0.017 0.023,0 0.047,-0.002 0.072,-0.005 0.66,-0.096 1.252,-0.287 1.758,-0.569 0.15,-0.085 0.248,-0.241 0.256,-0.415 0.074,-1.705 1.271,-2.311 1.637,-2.455 0.152,-0.061 0.266,-0.193 0.303,-0.354 0.158,-0.698 0.24,-1.501 0.24,-2.385 C 21.485,6.34 16.657,3.263 16.452,3.136 z"
           id="path4258" /></g><g
         id="g4260"><path
           d="m 23.228,23.438 h -0.725 c -0.129,0 -0.254,-0.051 -0.348,-0.141 -1.008,-0.976 -3.652,-3.186 -3.68,-3.208 -0.113,-0.095 -0.18,-0.235 -0.18,-0.384 0,-2.273 1.584,-3.368 2.422,-3.63 0.119,-0.036 0.252,-0.029 0.367,0.027 4.758,2.288 2.619,7 2.596,7.047 -0.081,0.177 -0.257,0.289 -0.452,0.289 z m -0.524,-1 h 0.186 c 0.324,-0.914 1.016,-3.738 -2.045,-5.337 -0.418,0.194 -1.449,0.83 -1.541,2.377 0.595,0.501 2.453,2.068 3.4,2.96 z"
           id="path4262" /></g><g
         id="g4264"><path
           d="M 9.872,23.438 H 9.147 c -0.193,0 -0.369,-0.112 -0.451,-0.288 -0.023,-0.047 -2.162,-4.759 2.596,-7.047 0.115,-0.056 0.246,-0.062 0.365,-0.027 0.838,0.262 2.422,1.356 2.422,3.63 0,0.148 -0.064,0.289 -0.18,0.384 -0.025,0.022 -2.67,2.232 -3.68,3.208 -0.091,0.09 -0.216,0.14 -0.347,0.14 z m -0.387,-1 h 0.188 c 0.947,-0.893 2.803,-2.459 3.4,-2.96 -0.094,-1.546 -1.121,-2.181 -1.541,-2.377 -3.076,1.607 -2.375,4.426 -2.047,5.337 z"
           id="path4266" /></g><g
         id="g4268"><g
           id="g4270"><path
             d="m 23.228,23.438 h -0.725 c -0.129,0 -0.254,-0.051 -0.348,-0.141 -1.01,-0.977 -3.654,-3.212 -3.682,-3.234 -0.111,-0.095 -0.178,-0.234 -0.178,-0.382 0,-2.279 1.592,-3.34 2.434,-3.583 0.117,-0.034 0.244,-0.024 0.355,0.03 4.758,2.289 2.617,6.976 2.596,7.022 -0.081,0.177 -0.259,0.288 -0.452,0.288 z m -0.524,-1 h 0.186 c 0.324,-0.909 1.016,-3.718 -2.051,-5.314 -0.412,0.182 -1.443,0.789 -1.535,2.331 0.593,0.505 2.453,2.089 3.4,2.983 z"
             id="path4272" /></g><g
           id="g4274"><path
             d="M 9.872,23.438 H 9.147 c -0.193,0 -0.369,-0.111 -0.451,-0.287 -0.023,-0.047 -2.164,-4.733 2.596,-7.022 0.111,-0.055 0.236,-0.064 0.355,-0.03 0.842,0.243 2.432,1.304 2.432,3.583 0,0.147 -0.064,0.287 -0.176,0.382 -0.027,0.022 -2.674,2.258 -3.684,3.234 -0.091,0.09 -0.216,0.14 -0.347,0.14 z m -0.387,-1 h 0.188 c 0.947,-0.895 2.807,-2.479 3.4,-2.983 -0.092,-1.541 -1.121,-2.147 -1.535,-2.331 -3.082,1.605 -2.381,4.407 -2.053,5.314 z"
             id="path4276" /></g></g></g><g
       id="g4278"><path
         d="m 16.188,13.377 c -1.104,0 -2,-0.897 -2,-2.001 0,-1.104 0.896,-2.001 2,-2.001 1.104,0 2,0.897 2,2.001 0,1.104 -0.896,2.001 -2,2.001 z m 0,-3.002 c -0.551,0 -1,0.449 -1,1.001 0,0.552 0.449,1.001 1,1.001 0.551,0 1,-0.449 1,-1.001 0,-0.552 -0.449,-1.001 -1,-1.001 z"
         id="path4280" /></g><g
       id="g4282"><path
         d="m 16.188,9.938 c -0.277,0 -0.5,-0.224 -0.5,-0.5 v -5 c 0,-0.276 0.223,-0.5 0.5,-0.5 0.275,0 0.5,0.224 0.5,0.5 v 5 c 0,0.277 -0.224,0.5 -0.5,0.5 z"
         id="path4284" /></g><g
       id="g4286"><path
         d="m 16.188,16.938 c -0.277,0 -0.5,-0.224 -0.5,-0.5 v -3 c 0,-0.276 0.223,-0.5 0.5,-0.5 0.275,0 0.5,0.224 0.5,0.5 v 3 c 0,0.277 -0.224,0.5 -0.5,0.5 z"
         id="path4288" /></g><g
       id="g4290"><path
         d="m 17.688,23.021 c 0,0.783 -0.635,1.417 -1.418,1.417 h -0.164 c -0.783,0 -1.418,-0.634 -1.418,-1.417 v -5.166 c 0,-0.782 0.635,-1.417 1.418,-1.417 h 0.164 c 0.783,0 1.418,0.635 1.418,1.417 v 5.166 z m -1.99,-5.583 c -0.229,0 -0.01,0.188 -0.01,0.417 v 5.166 c 0,0.229 -0.219,0.417 0.01,0.417 h 0.166 c 0.23,0 0.824,-0.188 0.824,-0.417 v -5.166 c 0,-0.229 -0.594,-0.417 -0.824,-0.417 h -0.166 z"
         id="path4292" /></g></g></svg>