<?xml version="1.0" encoding="UTF-8" standalone="no"?>
<!-- Created with Inkscape (http://www.inkscape.org/) -->

<svg
   xmlns:dc="http://purl.org/dc/elements/1.1/"
   xmlns:cc="http://creativecommons.org/ns#"
   xmlns:rdf="http://www.w3.org/1999/02/22-rdf-syntax-ns#"
   xmlns:svg="http://www.w3.org/2000/svg"
   xmlns="http://www.w3.org/2000/svg"
   version="1.1"
   width="32"
   height="32"
   viewBox="0 0 32 32"
   id="Calque_1"
   xml:space="preserve"><metadata
     id="metadata4556"><rdf:RDF><cc:Work
         rdf:about=""><dc:format>image/svg+xml</dc:format><dc:type
           rdf:resource="http://purl.org/dc/dcmitype/StillImage" /><dc:title></dc:title></cc:Work></rdf:RDF></metadata><defs
     id="defs4554" /><g
     transform="matrix(1.4286735,0,0,1.5,-6.9737838,-5.3975)"
     id="g4534"><g
       id="g4536"><path
         d="m 19.313,7.265 c -1.064,0 -1.884,1.859 -2.021,2.771 -0.061,0.401 0.079,0.723 0.429,0.931 1.227,0.731 4.385,3.244 4.385,5.515 0,4.641 -4.564,4.783 -6.057,4.783 h -0.062 c -3.92,0 -5.906,-1.732 -5.906,-4.842 0,-2.271 3.145,-4.711 4.355,-5.429 0.285,-0.169 0.469,-0.507 0.488,-0.839 C 15.02,8.61 14.113,7.98 13.315,7.302 L 13.11,7.265 h 2.943 3.094 m 1.116,-1 h -4.209 -4.096 c 0,0 -0.41,0.817 0.475,1.581 0.887,0.762 1.566,1.139 1.494,2.287 0,0 -4.846,2.979 -4.846,6.329 0,5.198 4.746,5.803 6.906,5.803 0.021,0 0.045,0 0.066,0 2.125,0 7.027,-0.571 7.027,-5.822 0,-3.349 -4.902,-6.335 -4.902,-6.335 0.1,-0.662 0.723,-1.461 1.607,-2.223 0.888,-0.763 0.478,-1.62 0.478,-1.62 l 0,0 z"
         id="path4538" /></g><g
       id="g4540"><path
         d="m 18.741,10.265 h -5 c -0.275,0 -0.5,-0.224 -0.5,-0.5 0,-0.276 0.225,-0.5 0.5,-0.5 h 5 c 0.277,0 0.5,0.224 0.5,0.5 0,0.276 -0.222,0.5 -0.5,0.5 z"
         id="path4542" /></g><g
       id="g4544"><path
         d="m 15.327,14.815 c -0.057,0 -0.113,-0.01 -0.17,-0.03 -0.26,-0.094 -0.393,-0.38 -0.299,-0.64 l 1.424,-3.935 c 0.094,-0.261 0.381,-0.394 0.639,-0.3 0.26,0.094 0.395,0.38 0.301,0.64 l -1.424,3.935 c -0.074,0.204 -0.266,0.33 -0.471,0.33 z"
         id="path4546" /></g><g
       id="g4548"><path
         d="m 18.177,14.815 c -0.205,0 -0.396,-0.126 -0.471,-0.33 L 16.282,10.55 c -0.094,-0.26 0.039,-0.546 0.299,-0.64 0.262,-0.093 0.547,0.04 0.641,0.3 l 1.424,3.935 c 0.094,0.26 -0.039,0.546 -0.299,0.64 -0.057,0.02 -0.114,0.03 -0.17,0.03 z"
         id="path4550" /></g></g></svg>