<?xml version="1.0" encoding="UTF-8" standalone="no"?>
<!-- Created with Inkscape (http://www.inkscape.org/) -->

<svg
   xmlns:dc="http://purl.org/dc/elements/1.1/"
   xmlns:cc="http://creativecommons.org/ns#"
   xmlns:rdf="http://www.w3.org/1999/02/22-rdf-syntax-ns#"
   xmlns:svg="http://www.w3.org/2000/svg"
   xmlns="http://www.w3.org/2000/svg"
   version="1.1"
   width="32"
   height="32"
   viewBox="0 0 32 32"
   id="Calque_1"
   xml:space="preserve"><metadata
     id="metadata4639"><rdf:RDF><cc:Work
         rdf:about=""><dc:format>image/svg+xml</dc:format><dc:type
           rdf:resource="http://purl.org/dc/dcmitype/StillImage" /><dc:title></dc:title></cc:Work></rdf:RDF></metadata><defs
     id="defs4637" /><g
     transform="matrix(1.771374,0,0,1.774331,-5.1076662,-3.0731192)"
     id="g4629"><g
       id="g4631"><path
         d="M 8.451,17.013 H 5.849 V 8.646 h 2.603 v 8.367 z M 7.15,7.504 c -0.836,0 -1.508,-0.677 -1.508,-1.51 0,-0.832 0.672,-1.508 1.508,-1.508 0.831,0 1.506,0.676 1.506,1.508 0,0.834 -0.675,1.51 -1.506,1.51 z m 11.04,9.509 h -2.6 v -4.07 c 0,-0.969 -0.016,-2.217 -1.351,-2.217 -1.354,0 -1.56,1.057 -1.56,2.149 v 4.138 H 10.082 V 8.646 h 2.492 v 1.145 h 0.036 c 0.347,-0.657 1.194,-1.352 2.459,-1.352 2.634,0 3.12,1.732 3.12,3.986 v 4.588 z"
         id="path4633"
         style="fill:none;stroke:#000000;stroke-linecap:round;stroke-linejoin:round;stroke-miterlimit:10" /></g></g></svg>