<?xml version="1.0" encoding="UTF-8" standalone="no"?>
<!-- Created with Inkscape (http://www.inkscape.org/) -->

<svg
   xmlns:dc="http://purl.org/dc/elements/1.1/"
   xmlns:cc="http://creativecommons.org/ns#"
   xmlns:rdf="http://www.w3.org/1999/02/22-rdf-syntax-ns#"
   xmlns:svg="http://www.w3.org/2000/svg"
   xmlns="http://www.w3.org/2000/svg"
   version="1.1"
   width="32"
   height="32"
   viewBox="0 0 32.000001 32"
   id="Calque_1"
   xml:space="preserve"><metadata
     id="metadata3118"><rdf:RDF><cc:Work
         rdf:about=""><dc:format>image/svg+xml</dc:format><dc:type
           rdf:resource="http://purl.org/dc/dcmitype/StillImage" /><dc:title></dc:title></cc:Work></rdf:RDF></metadata><defs
     id="defs3116" /><g
     transform="matrix(1.3333334,0,0,1.4439565,-5.5840004,-3.855124)"
     id="g3080"><g
       id="g3082"><path
         d="m 24.541,11.061 c -0.008,0 -0.014,-10e-4 -0.02,0 H 7.855 c -0.229,0 -0.428,-0.154 -0.484,-0.375 -0.056,-0.221 0.041,-0.452 0.24,-0.562 l 8.334,-4.621 c 0.15,-0.084 0.334,-0.084 0.484,0 l 8.262,4.582 c 0.203,0.064 0.35,0.253 0.35,0.477 0,0.275 -0.225,0.499 -0.5,0.499 z m -14.754,-1 h 12.801 l -6.4,-3.55 -6.401,3.55 z"
         id="path3084" /></g><g
       id="g3086"><path
         d="m 10.188,19.561 c -0.275,0 -0.5,-0.224 -0.5,-0.5 v -8 c 0,-0.276 0.225,-0.5 0.5,-0.5 0.277,0 0.5,0.224 0.5,0.5 v 8 c 0,0.276 -0.223,0.5 -0.5,0.5 z"
         id="path3088" /></g><g
       id="g3090"><path
         d="m 23.688,20.061 h -15 c -0.275,0 -0.5,-0.224 -0.5,-0.5 0,-0.276 0.225,-0.5 0.5,-0.5 h 15 c 0.277,0 0.5,0.224 0.5,0.5 0,0.276 -0.223,0.5 -0.5,0.5 z"
         id="path3092" /></g><g
       id="g3094"><path
         d="m 24.688,22.061 h -17 c -0.275,0 -0.5,-0.224 -0.5,-0.5 0,-0.276 0.225,-0.5 0.5,-0.5 h 17 c 0.277,0 0.5,0.224 0.5,0.5 0,0.276 -0.223,0.5 -0.5,0.5 z"
         id="path3096" /></g><g
       id="g3098"><path
         d="m 13.188,19.561 c -0.275,0 -0.5,-0.224 -0.5,-0.5 v -8 c 0,-0.276 0.225,-0.5 0.5,-0.5 0.277,0 0.5,0.224 0.5,0.5 v 8 c 0,0.276 -0.223,0.5 -0.5,0.5 z"
         id="path3100" /></g><g
       id="g3102"><path
         d="m 16.188,19.561 c -0.275,0 -0.5,-0.224 -0.5,-0.5 v -8 c 0,-0.276 0.225,-0.5 0.5,-0.5 0.277,0 0.5,0.224 0.5,0.5 v 8 c 0,0.276 -0.223,0.5 -0.5,0.5 z"
         id="path3104" /></g><g
       id="g3106"><path
         d="m 19.188,19.561 c -0.275,0 -0.5,-0.224 -0.5,-0.5 v -8 c 0,-0.276 0.225,-0.5 0.5,-0.5 0.277,0 0.5,0.224 0.5,0.5 v 8 c 0,0.276 -0.223,0.5 -0.5,0.5 z"
         id="path3108" /></g><g
       id="g3110"><path
         d="m 22.188,19.561 c -0.275,0 -0.5,-0.224 -0.5,-0.5 v -8 c 0,-0.276 0.225,-0.5 0.5,-0.5 0.277,0 0.5,0.224 0.5,0.5 v 8 c 0,0.276 -0.223,0.5 -0.5,0.5 z"
         id="path3112" /></g></g></svg>