<?xml version="1.0" encoding="UTF-8" standalone="no"?>
<!-- Created with Inkscape (http://www.inkscape.org/) -->

<svg
   xmlns:dc="http://purl.org/dc/elements/1.1/"
   xmlns:cc="http://creativecommons.org/ns#"
   xmlns:rdf="http://www.w3.org/1999/02/22-rdf-syntax-ns#"
   xmlns:svg="http://www.w3.org/2000/svg"
   xmlns="http://www.w3.org/2000/svg"
   version="1.1"
   width="32"
   height="32"
   viewBox="0 0 32.000001 32"
   id="Calque_1"
   xml:space="preserve"><metadata
     id="metadata3197"><rdf:RDF><cc:Work
         rdf:about=""><dc:format>image/svg+xml</dc:format><dc:type
           rdf:resource="http://purl.org/dc/dcmitype/StillImage" /><dc:title></dc:title></cc:Work></rdf:RDF></metadata><defs
     id="defs3195" /><g
     transform="matrix(1.2499482,0,0,1.2357757,-4.2340889,-0.99253332)"
     id="g3189"><path
       d="m 16.188,23.461 c -0.18,0 -0.344,-0.096 -0.434,-0.25 L 13.692,19.638 C 10.475,18.583 8.274,15.633 8.19,12.235 8.083,7.825 11.583,4.15 15.993,4.042 L 16.19,4.04 c 4.377,0 7.889,3.429 7.996,7.805 0.084,3.52 -2.166,6.693 -5.5,7.789 l -2.066,3.578 c -0.088,0.153 -0.254,0.249 -0.432,0.249 z M 16.19,5.039 16.016,5.041 c -3.857,0.095 -6.92,3.311 -6.826,7.169 0.074,3.032 2.076,5.657 4.98,6.53 0.123,0.036 0.227,0.118 0.289,0.229 l 1.729,2.992 1.73,-2.997 c 0.062,-0.11 0.166,-0.192 0.287,-0.229 3.01,-0.905 5.057,-3.729 4.98,-6.867 C 23.093,8.039 20.021,5.039 16.19,5.039 z"
       id="path3191" /></g></svg>