<?xml version="1.0" encoding="UTF-8" standalone="no"?>
<!-- Created with Inkscape (http://www.inkscape.org/) -->

<svg
   xmlns:dc="http://purl.org/dc/elements/1.1/"
   xmlns:cc="http://creativecommons.org/ns#"
   xmlns:rdf="http://www.w3.org/1999/02/22-rdf-syntax-ns#"
   xmlns:svg="http://www.w3.org/2000/svg"
   xmlns="http://www.w3.org/2000/svg"
   version="1.1"
   width="32"
   height="32"
   viewBox="0 0 32 32"
   id="Calque_1"
   xml:space="preserve"><metadata
     id="metadata4782"><rdf:RDF><cc:Work
         rdf:about=""><dc:format>image/svg+xml</dc:format><dc:type
           rdf:resource="http://purl.org/dc/dcmitype/StillImage" /><dc:title></dc:title></cc:Work></rdf:RDF></metadata><defs
     id="defs4780" /><path
     d="M 27.121992,10.252857 C 26.155757,10.146661 25.037047,10.006268 24.026269,9.9828679 24.615604,8.9011169 25.240916,7.9507599 25.809693,6.878008 24.946249,7.4017844 24.197588,7.9813585 23.152545,8.5717319 22.338782,7.6861717 21.185809,7.1371964 19.904347,7.1371964 c -2.460132,0 -4.454279,2.0321085 -4.454279,4.5375956 0,0.354585 0.0394,0.703769 0.116496,1.036753 C 11.866087,12.522554 8.9742318,10.384251 6.7796426,7.6393738 6.3976025,8.3125439 6.1800281,9.0883089 6.1800281,9.9216699 c 0,1.5749311 0.3923192,3.2938541 1.5864086,4.1056171 -0.7298164,-0.0234 -1.4168033,-0.224991 -2.018131,-0.565176 v 0.05219 c 0,2.2049 1.5350131,4.035418 3.5737032,4.4584 -0.4711266,0.354584 -0.8326084,0.379783 -1.2643308,0.494978 -0.2809623,0.07019 -0.5687772,-0.0288 -0.8394603,-0.08459 0.5653508,1.807119 2.3059461,2.780876 4.2555502,2.815075 -1.5264471,1.220344 -3.4469273,1.947511 -5.5318726,1.947511 -0.3614818,0 -0.716111,-0.0252 -1.0638873,-0.06659 1.9735883,1.290541 4.3103718,2.042907 6.8253259,2.042907 8.190734,0 12.670711,-6.922488 12.670711,-12.923419 l -0.01371,-0.586774 c 1.098151,-0.577774 1.627526,-0.811763 2.761653,-1.358938 z"
     id="path4776"
     style="fill:none;stroke:#000000;stroke-width:1.75601625;stroke-linecap:round;stroke-linejoin:round;stroke-miterlimit:10" /></svg>