<?xml version="1.0" encoding="UTF-8" standalone="no"?>
<!-- Created with Inkscape (http://www.inkscape.org/) -->

<svg
   xmlns:dc="http://purl.org/dc/elements/1.1/"
   xmlns:cc="http://creativecommons.org/ns#"
   xmlns:rdf="http://www.w3.org/1999/02/22-rdf-syntax-ns#"
   xmlns:svg="http://www.w3.org/2000/svg"
   xmlns="http://www.w3.org/2000/svg"
   version="1.1"
   width="32"
   height="32"
   viewBox="0 0 32 32"
   id="Calque_1"
   xml:space="preserve"><metadata
     id="metadata4910"><rdf:RDF><cc:Work
         rdf:about=""><dc:format>image/svg+xml</dc:format><dc:type
           rdf:resource="http://purl.org/dc/dcmitype/StillImage" /><dc:title></dc:title></cc:Work></rdf:RDF></metadata><defs
     id="defs4908" /><g
     transform="matrix(1.8157449,0,0,1.7011372,-5.6670863,-2.3152317)"
     id="g4896"><g
       id="g4898"><path
         d="m 15.793,11.381 c 0.052,0.289 0.079,0.587 0.079,0.891 0,2.779 -2.253,5.032 -5.032,5.032 -2.779,0 -5.032,-2.253 -5.032,-5.032 0,-2.777 2.253,-5.032 5.032,-5.032 0.348,0 0.687,0.035 1.015,0.102"
         id="path4900"
         style="fill:none;stroke:#000000;stroke-linecap:round;stroke-linejoin:round;stroke-miterlimit:10" /></g><path
       d="m 11.836,4.196 c 0,0 5.237,5.89 -1.104,11.281"
       id="path4902"
       style="fill:none;stroke:#000000;stroke-linecap:round;stroke-linejoin:round;stroke-miterlimit:10" /><path
       d="m 13.745,8.206 c 0,0 -0.518,-1.798 2.127,-2.567 1.04,-0.374 1.623,-1.442 1.623,-1.442 0,0 2.521,6.298 -3.426,5.317 0,0 1.953,-1.086 2.385,-2.274"
       id="path4904"
       style="fill:none;stroke:#000000;stroke-linecap:round;stroke-linejoin:round;stroke-miterlimit:10" /></g></svg>